<svg xmlns="http://www.w3.org/2000/svg" xmlns:xlink="http://www.w3.org/1999/xlink" width="1102" zoomAndPan="magnify" viewBox="0 0 826.5 178.499995" height="238" preserveAspectRatio="xMidYMid meet" version="1.0"><defs><g/><clipPath id="83811f8228"><path d="M 60.695312 0 L 102.941406 0 L 102.941406 42.082031 L 60.695312 42.082031 Z M 60.695312 0 " clip-rule="nonzero"/></clipPath><clipPath id="4d7ad41259"><path d="M 81.8125 0 C 70.148438 0 60.695312 9.421875 60.695312 21.039062 C 60.695312 32.660156 70.148438 42.082031 81.8125 42.082031 C 93.472656 42.082031 102.925781 32.660156 102.925781 21.039062 C 102.925781 9.421875 93.472656 0 81.8125 0 Z M 81.8125 0 " clip-rule="nonzero"/></clipPath><clipPath id="ae3cf88f6a"><path d="M 0.695312 0 L 42.941406 0 L 42.941406 42.082031 L 0.695312 42.082031 Z M 0.695312 0 " clip-rule="nonzero"/></clipPath><clipPath id="f9f8064921"><path d="M 21.8125 0 C 10.148438 0 0.695312 9.421875 0.695312 21.039062 C 0.695312 32.660156 10.148438 42.082031 21.8125 42.082031 C 33.472656 42.082031 42.925781 32.660156 42.925781 21.039062 C 42.925781 9.421875 33.472656 0 21.8125 0 Z M 21.8125 0 " clip-rule="nonzero"/></clipPath><clipPath id="b5e6ca2426"><rect x="0" width="43" y="0" height="43"/></clipPath><clipPath id="60d717606f"><path d="M 70.050781 9.324219 L 93.578125 9.324219 L 93.578125 32.757812 L 70.050781 32.757812 Z M 70.050781 9.324219 " clip-rule="nonzero"/></clipPath><clipPath id="adce708f84"><path d="M 81.8125 9.324219 C 75.316406 9.324219 70.050781 14.570312 70.050781 21.039062 C 70.050781 27.511719 75.316406 32.757812 81.8125 32.757812 C 88.304688 32.757812 93.570312 27.511719 93.570312 21.039062 C 93.570312 14.570312 88.304688 9.324219 81.8125 9.324219 Z M 81.8125 9.324219 " clip-rule="nonzero"/></clipPath><clipPath id="4e97d5201c"><path d="M 0.0507812 0.324219 L 23.578125 0.324219 L 23.578125 23.757812 L 0.0507812 23.757812 Z M 0.0507812 0.324219 " clip-rule="nonzero"/></clipPath><clipPath id="c072be2177"><path d="M 11.8125 0.324219 C 5.316406 0.324219 0.0507812 5.570312 0.0507812 12.039062 C 0.0507812 18.511719 5.316406 23.757812 11.8125 23.757812 C 18.304688 23.757812 23.570312 18.511719 23.570312 12.039062 C 23.570312 5.570312 18.304688 0.324219 11.8125 0.324219 Z M 11.8125 0.324219 " clip-rule="nonzero"/></clipPath><clipPath id="5c298d0d50"><rect x="0" width="24" y="0" height="24"/></clipPath><clipPath id="9fe4a0a456"><path d="M 118.832031 19.925781 L 141.074219 19.925781 L 141.074219 42.082031 L 118.832031 42.082031 Z M 118.832031 19.925781 " clip-rule="nonzero"/></clipPath><clipPath id="fb7b563a1e"><path d="M 129.949219 19.925781 C 123.808594 19.925781 118.832031 24.886719 118.832031 31.003906 C 118.832031 37.121094 123.808594 42.082031 129.949219 42.082031 C 136.085938 42.082031 141.066406 37.121094 141.066406 31.003906 C 141.066406 24.886719 136.085938 19.925781 129.949219 19.925781 Z M 129.949219 19.925781 " clip-rule="nonzero"/></clipPath><clipPath id="7230ea9e5f"><path d="M 0.832031 0.925781 L 23.074219 0.925781 L 23.074219 23.082031 L 0.832031 23.082031 Z M 0.832031 0.925781 " clip-rule="nonzero"/></clipPath><clipPath id="551b096257"><path d="M 11.949219 0.925781 C 5.808594 0.925781 0.832031 5.886719 0.832031 12.003906 C 0.832031 18.121094 5.808594 23.082031 11.949219 23.082031 C 18.085938 23.082031 23.066406 18.121094 23.066406 12.003906 C 23.066406 5.886719 18.085938 0.925781 11.949219 0.925781 Z M 11.949219 0.925781 " clip-rule="nonzero"/></clipPath><clipPath id="c3a4b56134"><rect x="0" width="24" y="0" height="24"/></clipPath><clipPath id="73083fc79e"><path d="M 48.257812 54.957031 L 70.394531 54.957031 L 70.394531 77.007812 L 48.257812 77.007812 Z M 48.257812 54.957031 " clip-rule="nonzero"/></clipPath><clipPath id="9077e43511"><path d="M 59.320312 54.957031 C 53.210938 54.957031 48.257812 59.894531 48.257812 65.984375 C 48.257812 72.074219 53.210938 77.007812 59.320312 77.007812 C 65.433594 77.007812 70.386719 72.074219 70.386719 65.984375 C 70.386719 59.894531 65.433594 54.957031 59.320312 54.957031 Z M 59.320312 54.957031 " clip-rule="nonzero"/></clipPath><clipPath id="086a545eef"><path d="M 0.257812 0.957031 L 22.394531 0.957031 L 22.394531 23.007812 L 0.257812 23.007812 Z M 0.257812 0.957031 " clip-rule="nonzero"/></clipPath><clipPath id="58514c2e32"><path d="M 11.320312 0.957031 C 5.210938 0.957031 0.257812 5.894531 0.257812 11.984375 C 0.257812 18.074219 5.210938 23.007812 11.320312 23.007812 C 17.433594 23.007812 22.386719 18.074219 22.386719 11.984375 C 22.386719 5.894531 17.433594 0.957031 11.320312 0.957031 Z M 11.320312 0.957031 " clip-rule="nonzero"/></clipPath><clipPath id="087930e27b"><rect x="0" width="23" y="0" height="24"/></clipPath><clipPath id="f932e5a783"><path d="M 96.519531 77.007812 L 115.035156 77.007812 L 115.035156 95.453125 L 96.519531 95.453125 Z M 96.519531 77.007812 " clip-rule="nonzero"/></clipPath><clipPath id="291d40d22a"><path d="M 105.773438 77.007812 C 100.660156 77.007812 96.519531 81.136719 96.519531 86.230469 C 96.519531 91.324219 100.660156 95.453125 105.773438 95.453125 C 110.882812 95.453125 115.027344 91.324219 115.027344 86.230469 C 115.027344 81.136719 110.882812 77.007812 105.773438 77.007812 Z M 105.773438 77.007812 " clip-rule="nonzero"/></clipPath><clipPath id="003a017de2"><path d="M 0.519531 0.0078125 L 19.035156 0.0078125 L 19.035156 18.453125 L 0.519531 18.453125 Z M 0.519531 0.0078125 " clip-rule="nonzero"/></clipPath><clipPath id="c63157ac52"><path d="M 9.773438 0.0078125 C 4.660156 0.0078125 0.519531 4.136719 0.519531 9.230469 C 0.519531 14.324219 4.660156 18.453125 9.773438 18.453125 C 14.882812 18.453125 19.027344 14.324219 19.027344 9.230469 C 19.027344 4.136719 14.882812 0.0078125 9.773438 0.0078125 Z M 9.773438 0.0078125 " clip-rule="nonzero"/></clipPath><clipPath id="d10506d8e3"><rect x="0" width="20" y="0" height="19"/></clipPath><clipPath id="edf303086d"><path d="M 130.015625 113.882812 L 149.207031 113.882812 L 149.207031 133.003906 L 130.015625 133.003906 Z M 130.015625 113.882812 " clip-rule="nonzero"/></clipPath><clipPath id="ca0fd6d3d6"><path d="M 139.609375 113.882812 C 134.308594 113.882812 130.015625 118.164062 130.015625 123.441406 C 130.015625 128.722656 134.308594 133.003906 139.609375 133.003906 C 144.90625 133.003906 149.203125 128.722656 149.203125 123.441406 C 149.203125 118.164062 144.90625 113.882812 139.609375 113.882812 Z M 139.609375 113.882812 " clip-rule="nonzero"/></clipPath><clipPath id="bbd36b346a"><path d="M 0.015625 0.882812 L 19.207031 0.882812 L 19.207031 20.003906 L 0.015625 20.003906 Z M 0.015625 0.882812 " clip-rule="nonzero"/></clipPath><clipPath id="b6bf0ee46e"><path d="M 9.609375 0.882812 C 4.308594 0.882812 0.015625 5.164062 0.015625 10.441406 C 0.015625 15.722656 4.308594 20.003906 9.609375 20.003906 C 14.90625 20.003906 19.203125 15.722656 19.203125 10.441406 C 19.203125 5.164062 14.90625 0.882812 9.609375 0.882812 Z M 9.609375 0.882812 " clip-rule="nonzero"/></clipPath><clipPath id="be931df34e"><rect x="0" width="20" y="0" height="21"/></clipPath><clipPath id="1c582d211f"><path d="M 128.085938 53.375 L 170.332031 53.375 L 170.332031 95.453125 L 128.085938 95.453125 Z M 128.085938 53.375 " clip-rule="nonzero"/></clipPath><clipPath id="4931f26896"><path d="M 149.203125 53.375 C 137.539062 53.375 128.085938 62.792969 128.085938 74.414062 C 128.085938 86.035156 137.539062 95.453125 149.203125 95.453125 C 160.863281 95.453125 170.316406 86.035156 170.316406 74.414062 C 170.316406 62.792969 160.863281 53.375 149.203125 53.375 Z M 149.203125 53.375 " clip-rule="nonzero"/></clipPath><clipPath id="bbb0bb9e28"><path d="M 0.0859375 0.375 L 42.332031 0.375 L 42.332031 42.453125 L 0.0859375 42.453125 Z M 0.0859375 0.375 " clip-rule="nonzero"/></clipPath><clipPath id="133e0a6e3c"><path d="M 21.203125 0.375 C 9.539062 0.375 0.0859375 9.792969 0.0859375 21.414062 C 0.0859375 33.035156 9.539062 42.453125 21.203125 42.453125 C 32.863281 42.453125 42.316406 33.035156 42.316406 21.414062 C 42.316406 9.792969 32.863281 0.375 21.203125 0.375 Z M 21.203125 0.375 " clip-rule="nonzero"/></clipPath><clipPath id="9f93302621"><rect x="0" width="43" y="0" height="43"/></clipPath><clipPath id="05f9e2a4cf"><path d="M 137.441406 62.695312 L 160.96875 62.695312 L 160.96875 86.132812 L 137.441406 86.132812 Z M 137.441406 62.695312 " clip-rule="nonzero"/></clipPath><clipPath id="a750cc625f"><path d="M 149.203125 62.695312 C 142.707031 62.695312 137.441406 67.941406 137.441406 74.414062 C 137.441406 80.886719 142.707031 86.132812 149.203125 86.132812 C 155.695312 86.132812 160.960938 80.886719 160.960938 74.414062 C 160.960938 67.941406 155.695312 62.695312 149.203125 62.695312 Z M 149.203125 62.695312 " clip-rule="nonzero"/></clipPath><clipPath id="2f8330f7f8"><path d="M 0.441406 0.695312 L 23.96875 0.695312 L 23.96875 24.132812 L 0.441406 24.132812 Z M 0.441406 0.695312 " clip-rule="nonzero"/></clipPath><clipPath id="586edaed16"><path d="M 12.203125 0.695312 C 5.707031 0.695312 0.441406 5.941406 0.441406 12.414062 C 0.441406 18.886719 5.707031 24.132812 12.203125 24.132812 C 18.695312 24.132812 23.960938 18.886719 23.960938 12.414062 C 23.960938 5.941406 18.695312 0.695312 12.203125 0.695312 Z M 12.203125 0.695312 " clip-rule="nonzero"/></clipPath><clipPath id="8bfbe6de89"><rect x="0" width="24" y="0" height="25"/></clipPath><clipPath id="808712d009"><path d="M 81.8125 117.761719 L 94.910156 117.761719 L 94.910156 130.808594 L 81.8125 130.808594 Z M 81.8125 117.761719 " clip-rule="nonzero"/></clipPath><clipPath id="66d1e4f572"><path d="M 88.355469 117.761719 C 84.742188 117.761719 81.8125 120.683594 81.8125 124.285156 C 81.8125 127.886719 84.742188 130.808594 88.355469 130.808594 C 91.972656 130.808594 94.902344 127.886719 94.902344 124.285156 C 94.902344 120.683594 91.972656 117.761719 88.355469 117.761719 Z M 88.355469 117.761719 " clip-rule="nonzero"/></clipPath><clipPath id="2d706e848f"><path d="M 0.8125 0.761719 L 13.910156 0.761719 L 13.910156 13.808594 L 0.8125 13.808594 Z M 0.8125 0.761719 " clip-rule="nonzero"/></clipPath><clipPath id="e6805d421d"><path d="M 7.355469 0.761719 C 3.742188 0.761719 0.8125 3.683594 0.8125 7.285156 C 0.8125 10.886719 3.742188 13.808594 7.355469 13.808594 C 10.972656 13.808594 13.902344 10.886719 13.902344 7.285156 C 13.902344 3.683594 10.972656 0.761719 7.355469 0.761719 Z M 7.355469 0.761719 " clip-rule="nonzero"/></clipPath><clipPath id="175bc35f5e"><rect x="0" width="14" y="0" height="14"/></clipPath><clipPath id="e86d48c5ae"><path d="M 0.90625 0 L 118 0 L 118 116 L 0.90625 116 Z M 0.90625 0 " clip-rule="nonzero"/></clipPath><clipPath id="61d9fa57bd"><path d="M 70 73 L 191 73 L 191 178 L 70 178 Z M 70 73 " clip-rule="nonzero"/></clipPath><clipPath id="2deae9d56e"><path d="M 0.90625 32 L 136 32 L 136 178 L 0.90625 178 Z M 0.90625 32 " clip-rule="nonzero"/></clipPath><clipPath id="6a09b34b1b"><path d="M 0.90625 59 L 122 59 L 122 178 L 0.90625 178 Z M 0.90625 59 " clip-rule="nonzero"/></clipPath><clipPath id="d8c0e6b854"><path d="M 0.90625 32 L 65 32 L 65 161 L 0.90625 161 Z M 0.90625 32 " clip-rule="nonzero"/></clipPath><clipPath id="001fd2afb6"><path d="M 0.90625 16 L 110 16 L 110 150 L 0.90625 150 Z M 0.90625 16 " clip-rule="nonzero"/></clipPath><clipPath id="0d4ee99439"><path d="M 16 92 L 172 92 L 172 178 L 16 178 Z M 16 92 " clip-rule="nonzero"/></clipPath><clipPath id="6d4c498500"><path d="M 32 91 L 174 91 L 174 178 L 32 178 Z M 32 91 " clip-rule="nonzero"/></clipPath><clipPath id="a99df8e304"><path d="M 39 63 L 173 63 L 173 178 L 39 178 Z M 39 63 " clip-rule="nonzero"/></clipPath><clipPath id="f9e86cd8af"><path d="M 0.90625 6 L 82 6 L 82 148 L 0.90625 148 Z M 0.90625 6 " clip-rule="nonzero"/></clipPath></defs><g fill="#ffffff" fill-opacity="1"><g transform="translate(179.281706, 125.691515)"><g><path d="M 8.921875 0 L 8.921875 -68.59375 L 22.46875 -68.59375 L 22.46875 -40.59375 L 23.96875 -40.59375 L 46.875 -68.59375 L 60.765625 -68.59375 L 60.765625 -67.421875 L 35.515625 -36.21875 L 63.390625 -1.171875 L 63.390625 0 L 48.046875 0 L 23.96875 -29.609375 L 22.46875 -29.609375 L 22.46875 0 Z M 8.921875 0 "/></g></g></g><g fill="#ffffff" fill-opacity="1"><g transform="translate(242.671914, 125.691515)"><g><path d="M 22.046875 0 L 8.921875 0 L 8.921875 -68.59375 L 24.453125 -68.59375 L 51.984375 -24.40625 L 53.203125 -24.59375 L 53.203125 -68.59375 L 66.25 -68.59375 L 66.25 0 L 52.359375 0 L 23.21875 -47.203125 L 22.046875 -47.015625 Z M 22.046875 0 "/></g></g></g><g fill="#ffffff" fill-opacity="1"><g transform="translate(317.8862, 125.691515)"><g><path d="M 37.390625 0.984375 C 31.109375 0.984375 25.566406 -0.296875 20.765625 -2.859375 C 15.960938 -5.421875 12.195312 -9.335938 9.46875 -14.609375 C 6.75 -19.878906 5.390625 -26.441406 5.390625 -34.296875 C 5.390625 -42.148438 6.75 -48.710938 9.46875 -53.984375 C 12.195312 -59.253906 15.960938 -63.171875 20.765625 -65.734375 C 25.566406 -68.296875 31.109375 -69.578125 37.390625 -69.578125 C 43.679688 -69.578125 49.21875 -68.300781 54 -65.75 C 58.789062 -63.207031 62.535156 -59.289062 65.234375 -54 C 67.941406 -48.71875 69.296875 -42.148438 69.296875 -34.296875 C 69.296875 -26.441406 67.941406 -19.867188 65.234375 -14.578125 C 62.535156 -9.296875 58.789062 -5.378906 54 -2.828125 C 49.21875 -0.285156 43.679688 0.984375 37.390625 0.984375 Z M 37.390625 -10.796875 C 43.210938 -10.796875 47.65625 -12.660156 50.71875 -16.390625 C 53.78125 -20.128906 55.3125 -26.097656 55.3125 -34.296875 C 55.3125 -42.492188 53.78125 -48.46875 50.71875 -52.21875 C 47.65625 -55.976562 43.210938 -57.859375 37.390625 -57.859375 C 31.546875 -57.859375 27.082031 -55.976562 24 -52.21875 C 20.914062 -48.46875 19.375 -42.492188 19.375 -34.296875 C 19.375 -26.097656 20.914062 -20.128906 24 -16.390625 C 27.082031 -12.660156 31.546875 -10.796875 37.390625 -10.796875 Z M 37.390625 -10.796875 "/></g></g></g><g fill="#ffffff" fill-opacity="1"><g transform="translate(392.443571, 125.691515)"><g><path d="M 32.75 0 L 17.59375 0 L 1.875 -68.59375 L 15.390625 -68.59375 L 25.765625 -20.359375 L 26.9375 -20.359375 L 39.21875 -68.59375 L 50.8125 -68.59375 L 63.34375 -20.359375 L 64.515625 -20.359375 L 74.9375 -68.59375 L 87.96875 -68.59375 L 72.3125 0 L 57.109375 0 L 45.09375 -44.25 L 44.109375 -44.25 Z M 32.75 0 "/></g></g></g><g fill="#ffffff" fill-opacity="1"><g transform="translate(482.250278, 125.691515)"><g><path d="M 8.921875 0 L 8.921875 -68.59375 L 36.453125 -68.59375 C 43.554688 -68.59375 48.914062 -66.957031 52.53125 -63.6875 C 56.144531 -60.425781 57.953125 -55.914062 57.953125 -50.15625 C 57.953125 -46 56.894531 -42.585938 54.78125 -39.921875 C 52.664062 -37.265625 49.515625 -35.234375 45.328125 -33.828125 L 45.328125 -32.84375 C 47.484375 -31.90625 49.222656 -30.515625 50.546875 -28.671875 C 51.878906 -26.828125 53.140625 -24.085938 54.328125 -20.453125 L 61.1875 0 L 47.25 0 L 40.546875 -20.5 C 39.847656 -22.5625 39.066406 -24.164062 38.203125 -25.3125 C 37.347656 -26.457031 36.253906 -27.285156 34.921875 -27.796875 C 33.597656 -28.316406 31.875 -28.578125 29.75 -28.578125 L 22.46875 -28.578125 L 22.46875 0 Z M 34.8125 -39.3125 C 41.382812 -39.3125 44.671875 -42.378906 44.671875 -48.515625 C 44.671875 -54.742188 41.382812 -57.859375 34.8125 -57.859375 L 22.46875 -57.859375 L 22.46875 -39.3125 Z M 34.8125 -39.3125 "/></g></g></g><g fill="#ffffff" fill-opacity="1"><g transform="translate(546.39121, 125.691515)"><g><path d="M 22.46875 0 L 8.921875 0 L 8.921875 -68.59375 L 22.46875 -68.59375 Z M 22.46875 0 "/></g></g></g><g fill="#ffffff" fill-opacity="1"><g transform="translate(577.828234, 125.691515)"><g><path d="M 54.984375 -68.59375 L 54.984375 -57.203125 L 35.1875 -57.203125 L 35.1875 0 L 21.671875 0 L 21.671875 -57.203125 L 1.875 -57.203125 L 1.875 -68.59375 Z M 54.984375 -68.59375 "/></g></g></g><g fill="#ffffff" fill-opacity="1"><g transform="translate(634.696446, 125.691515)"><g><path d="M 53.203125 -42.796875 L 53.203125 -68.59375 L 66.71875 -68.59375 L 66.71875 0 L 53.203125 0 L 53.203125 -31.25 L 22.46875 -31.25 L 22.46875 0 L 8.921875 0 L 8.921875 -68.59375 L 22.46875 -68.59375 L 22.46875 -42.796875 Z M 53.203125 -42.796875 "/></g></g></g><g fill="#ffffff" fill-opacity="1"><g transform="translate(710.379966, 125.691515)"><g><path d="M 21.34375 0 L 8.921875 0 L 8.921875 -68.59375 L 26.65625 -68.59375 L 44.015625 -18.15625 L 45 -18.15625 L 62.265625 -68.59375 L 79.578125 -68.59375 L 79.578125 0 L 66.71875 0 L 66.71875 -45.328125 L 65.546875 -45.515625 L 49.6875 0 L 38.375 0 L 22.515625 -45.515625 L 21.34375 -45.328125 Z M 21.34375 0 "/></g></g></g><g clip-path="url(#83811f8228)"><g clip-path="url(#4d7ad41259)"><g transform="matrix(1, 0, 0, 1, 60, 0)"><g clip-path="url(#b5e6ca2426)"><g clip-path="url(#ae3cf88f6a)"><g clip-path="url(#f9f8064921)"><path fill="#ffffff" d="M 0.695312 0 L 42.941406 0 L 42.941406 42.082031 L 0.695312 42.082031 Z M 0.695312 0 " fill-opacity="1" fill-rule="nonzero"/></g></g></g></g></g></g><g clip-path="url(#60d717606f)"><g clip-path="url(#adce708f84)"><g transform="matrix(1, 0, 0, 1, 70, 9)"><g clip-path="url(#5c298d0d50)"><g clip-path="url(#4e97d5201c)"><g clip-path="url(#c072be2177)"><path fill="#000000" d="M 0.0507812 0.324219 L 23.578125 0.324219 L 23.578125 23.757812 L 0.0507812 23.757812 Z M 0.0507812 0.324219 " fill-opacity="1" fill-rule="nonzero"/></g></g></g></g></g></g><g clip-path="url(#9fe4a0a456)"><g clip-path="url(#fb7b563a1e)"><g transform="matrix(1, 0, 0, 1, 118, 19)"><g clip-path="url(#c3a4b56134)"><g clip-path="url(#7230ea9e5f)"><g clip-path="url(#551b096257)"><path fill="#ffffff" d="M 0.832031 0.925781 L 23.074219 0.925781 L 23.074219 23.082031 L 0.832031 23.082031 Z M 0.832031 0.925781 " fill-opacity="1" fill-rule="nonzero"/></g></g></g></g></g></g><g clip-path="url(#73083fc79e)"><g clip-path="url(#9077e43511)"><g transform="matrix(1, 0, 0, 1, 48, 54)"><g clip-path="url(#087930e27b)"><g clip-path="url(#086a545eef)"><g clip-path="url(#58514c2e32)"><path fill="#ffffff" d="M 0.257812 0.957031 L 22.394531 0.957031 L 22.394531 23.007812 L 0.257812 23.007812 Z M 0.257812 0.957031 " fill-opacity="1" fill-rule="nonzero"/></g></g></g></g></g></g><g clip-path="url(#f932e5a783)"><g clip-path="url(#291d40d22a)"><g transform="matrix(1, 0, 0, 1, 96, 77)"><g clip-path="url(#d10506d8e3)"><g clip-path="url(#003a017de2)"><g clip-path="url(#c63157ac52)"><path fill="#ffffff" d="M 0.519531 0.0078125 L 19.035156 0.0078125 L 19.035156 18.453125 L 0.519531 18.453125 Z M 0.519531 0.0078125 " fill-opacity="1" fill-rule="nonzero"/></g></g></g></g></g></g><g clip-path="url(#edf303086d)"><g clip-path="url(#ca0fd6d3d6)"><g transform="matrix(1, 0, 0, 1, 130, 113)"><g clip-path="url(#be931df34e)"><g clip-path="url(#bbd36b346a)"><g clip-path="url(#b6bf0ee46e)"><path fill="#ffffff" d="M 0.015625 0.882812 L 19.207031 0.882812 L 19.207031 20.003906 L 0.015625 20.003906 Z M 0.015625 0.882812 " fill-opacity="1" fill-rule="nonzero"/></g></g></g></g></g></g><g clip-path="url(#1c582d211f)"><g clip-path="url(#4931f26896)"><g transform="matrix(1, 0, 0, 1, 128, 53)"><g clip-path="url(#9f93302621)"><g clip-path="url(#bbb0bb9e28)"><g clip-path="url(#133e0a6e3c)"><path fill="#ffffff" d="M 0.0859375 0.375 L 42.332031 0.375 L 42.332031 42.453125 L 0.0859375 42.453125 Z M 0.0859375 0.375 " fill-opacity="1" fill-rule="nonzero"/></g></g></g></g></g></g><g clip-path="url(#05f9e2a4cf)"><g clip-path="url(#a750cc625f)"><g transform="matrix(1, 0, 0, 1, 137, 62)"><g clip-path="url(#8bfbe6de89)"><g clip-path="url(#2f8330f7f8)"><g clip-path="url(#586edaed16)"><path fill="#000000" d="M 0.441406 0.695312 L 23.96875 0.695312 L 23.96875 24.132812 L 0.441406 24.132812 Z M 0.441406 0.695312 " fill-opacity="1" fill-rule="nonzero"/></g></g></g></g></g></g><g clip-path="url(#808712d009)"><g clip-path="url(#66d1e4f572)"><g transform="matrix(1, 0, 0, 1, 81, 117)"><g clip-path="url(#175bc35f5e)"><g clip-path="url(#2d706e848f)"><g clip-path="url(#e6805d421d)"><path fill="#ffffff" d="M 0.8125 0.761719 L 13.910156 0.761719 L 13.910156 13.808594 L 0.8125 13.808594 Z M 0.8125 0.761719 " fill-opacity="1" fill-rule="nonzero"/></g></g></g></g></g></g><g clip-path="url(#e86d48c5ae)"><path stroke-linecap="butt" transform="matrix(0.522683, -0.534943, 0.534943, 0.522683, 20.368995, 61.098717)" fill="none" stroke-linejoin="miter" d="M -0.0000698508 5.999082 L 82.8284 5.99891 " stroke="#ffffff" stroke-width="12" stroke-opacity="1" stroke-miterlimit="4"/></g><path stroke-linecap="butt" transform="matrix(0.534143, -0.523501, 0.523501, 0.534143, 117.776067, 112.260156)" fill="none" stroke-linejoin="miter" d="M 0.00101047 6.000676 L 49.344168 5.999128 " stroke="#ffffff" stroke-width="12" stroke-opacity="1" stroke-miterlimit="4"/><g clip-path="url(#61d9fa57bd)"><path stroke-linecap="butt" transform="matrix(0.520503, -0.537065, 0.537065, 0.520503, 117.694164, 140.615397)" fill="none" stroke-linejoin="miter" d="M 0.00144506 6.001235 L 36.228465 5.999751 " stroke="#ffffff" stroke-width="12" stroke-opacity="1" stroke-miterlimit="4"/></g><g clip-path="url(#2deae9d56e)"><path stroke-linecap="butt" transform="matrix(0.55263, 0.503946, -0.503946, 0.55263, 17.235503, 79.879683)" fill="none" stroke-linejoin="miter" d="M -0.00101516 6.000651 L 127.79609 5.99973 " stroke="#ffffff" stroke-width="12" stroke-opacity="1" stroke-miterlimit="4"/></g><g clip-path="url(#6a09b34b1b)"><path stroke-linecap="butt" transform="matrix(0.553337, 0.50317, -0.50317, 0.553337, 14.120328, 106.800567)" fill="none" stroke-linejoin="miter" d="M 0.000705993 6.000271 L 107.141804 6.000211 " stroke="#ffffff" stroke-width="12" stroke-opacity="1" stroke-miterlimit="4"/></g><g clip-path="url(#d8c0e6b854)"><path stroke-linecap="butt" transform="matrix(-0.0850529, 0.743053, -0.743053, -0.0850529, 18.567002, 81.874503)" fill="none" stroke-linejoin="miter" d="M 2.069839 5.630721 C 21.430453 12.740592 33.627018 12.742893 38.653751 5.633029 " stroke="#ffffff" stroke-width="12" stroke-opacity="1" stroke-miterlimit="4"/></g><path stroke-linecap="butt" transform="matrix(0.559053, -0.496811, 0.496811, 0.559053, 90.587632, 60.87829)" fill="none" stroke-linejoin="miter" d="M 0.000245879 6.003376 L 63.950894 5.999701 " stroke="#ffffff" stroke-width="12" stroke-opacity="1" stroke-miterlimit="4"/><g clip-path="url(#001fd2afb6)"><path stroke-linecap="butt" transform="matrix(0.547189, 0.509849, -0.509849, 0.547189, 28.085879, 64.040956)" fill="none" stroke-linejoin="miter" d="M 0.000664818 5.999616 L 60.739295 6.001835 " stroke="#ffffff" stroke-width="12" stroke-opacity="1" stroke-miterlimit="4"/></g><path stroke-linecap="butt" transform="matrix(0.724105, -0.187173, 0.187173, 0.724105, 53.717812, 95.86584)" fill="none" stroke-linejoin="miter" d="M 5.076378 4.658694 C 20.465971 29.039072 43.188306 29.037832 73.242075 4.66003 " stroke="#ffffff" stroke-width="12" stroke-opacity="1" stroke-miterlimit="4"/><g clip-path="url(#0d4ee99439)"><path stroke-linecap="butt" transform="matrix(0.712758, -0.226579, 0.226579, 0.712758, 61.847367, 158.332579)" fill="none" stroke-linejoin="miter" d="M 5.354144 5.329339 C 15.804868 26.019151 41.08063 26.019717 81.181431 5.331039 " stroke="#ffffff" stroke-width="12" stroke-opacity="1" stroke-miterlimit="4"/></g><g clip-path="url(#6d4c498500)"><path stroke-linecap="butt" transform="matrix(0.744337, -0.0729687, 0.0729687, 0.744337, 79.296364, 142.932177)" fill="none" stroke-linejoin="miter" d="M 4.30916 4.176629 C 22.209379 22.651419 40.094378 22.6519 57.964667 4.172873 " stroke="#ffffff" stroke-width="12" stroke-opacity="1" stroke-miterlimit="4"/></g><g clip-path="url(#a99df8e304)"><path stroke-linecap="butt" transform="matrix(0.710302, -0.234166, 0.234166, 0.710302, 84.980901, 122.55168)" fill="none" stroke-linejoin="miter" d="M 5.292654 5.296197 C 11.902143 17.693085 26.872618 17.689931 50.205769 5.298291 " stroke="#ffffff" stroke-width="12" stroke-opacity="1" stroke-miterlimit="4"/></g><path stroke-linecap="butt" transform="matrix(0.720153, -0.201844, 0.201844, 0.720153, 59.571302, 67.346885)" fill="none" stroke-linejoin="miter" d="M 5.278235 5.315353 C 11.969678 17.708332 27.136197 17.706623 50.771354 5.313846 " stroke="#ffffff" stroke-width="12" stroke-opacity="1" stroke-miterlimit="4"/><g clip-path="url(#f9e86cd8af)"><path stroke-linecap="butt" transform="matrix(-0.360623, 0.65522, -0.65522, -0.360623, 34.92112, 57.9743)" fill="none" stroke-linejoin="miter" d="M 1.951559 5.67343 C 21.922061 12.549306 41.871083 12.551194 61.796107 5.674519 " stroke="#ffffff" stroke-width="12" stroke-opacity="1" stroke-miterlimit="4"/></g></svg>