<svg xmlns="http://www.w3.org/2000/svg" xmlns:xlink="http://www.w3.org/1999/xlink" width="1102" zoomAndPan="magnify" viewBox="0 0 826.5 178.499995" height="238" preserveAspectRatio="xMidYMid meet" version="1.0"><defs><g/><clipPath id="1bbc77284d"><path d="M 0.90625 0 L 801 0 L 801 178 L 0.90625 178 Z M 0.90625 0 " clip-rule="nonzero"/></clipPath><clipPath id="a16de63c65"><path d="M 178 22 L 800.027344 22 L 800.027344 155 L 178 155 Z M 178 22 " clip-rule="nonzero"/></clipPath><clipPath id="e2a0d3f8af"><rect x="0" width="623" y="0" height="133"/></clipPath><clipPath id="ac7419e24d"><path d="M 60.75 0 L 102.996094 0 L 102.996094 42.082031 L 60.75 42.082031 Z M 60.75 0 " clip-rule="nonzero"/></clipPath><clipPath id="8eb23a6f20"><path d="M 81.867188 0 C 70.203125 0 60.75 9.421875 60.75 21.039062 C 60.75 32.660156 70.203125 42.082031 81.867188 42.082031 C 93.527344 42.082031 102.980469 32.660156 102.980469 21.039062 C 102.980469 9.421875 93.527344 0 81.867188 0 Z M 81.867188 0 " clip-rule="nonzero"/></clipPath><clipPath id="813347e38a"><path d="M 0.75 0 L 42.996094 0 L 42.996094 42.082031 L 0.75 42.082031 Z M 0.75 0 " clip-rule="nonzero"/></clipPath><clipPath id="a02cd9b5ad"><path d="M 21.867188 0 C 10.203125 0 0.75 9.421875 0.75 21.039062 C 0.75 32.660156 10.203125 42.082031 21.867188 42.082031 C 33.527344 42.082031 42.980469 32.660156 42.980469 21.039062 C 42.980469 9.421875 33.527344 0 21.867188 0 Z M 21.867188 0 " clip-rule="nonzero"/></clipPath><clipPath id="3759e30c59"><rect x="0" width="43" y="0" height="43"/></clipPath><clipPath id="5ed767ee03"><path d="M 70.105469 9.324219 L 93.632812 9.324219 L 93.632812 32.757812 L 70.105469 32.757812 Z M 70.105469 9.324219 " clip-rule="nonzero"/></clipPath><clipPath id="d82e460670"><path d="M 81.867188 9.324219 C 75.371094 9.324219 70.105469 14.570312 70.105469 21.039062 C 70.105469 27.511719 75.371094 32.757812 81.867188 32.757812 C 88.359375 32.757812 93.625 27.511719 93.625 21.039062 C 93.625 14.570312 88.359375 9.324219 81.867188 9.324219 Z M 81.867188 9.324219 " clip-rule="nonzero"/></clipPath><clipPath id="dffb733bb0"><path d="M 0.105469 0.324219 L 23.632812 0.324219 L 23.632812 23.757812 L 0.105469 23.757812 Z M 0.105469 0.324219 " clip-rule="nonzero"/></clipPath><clipPath id="d1e65db450"><path d="M 11.867188 0.324219 C 5.371094 0.324219 0.105469 5.570312 0.105469 12.039062 C 0.105469 18.511719 5.371094 23.757812 11.867188 23.757812 C 18.359375 23.757812 23.625 18.511719 23.625 12.039062 C 23.625 5.570312 18.359375 0.324219 11.867188 0.324219 Z M 11.867188 0.324219 " clip-rule="nonzero"/></clipPath><clipPath id="06465294e1"><rect x="0" width="24" y="0" height="24"/></clipPath><clipPath id="8c92c1cf60"><path d="M 118.886719 19.925781 L 141.128906 19.925781 L 141.128906 42.082031 L 118.886719 42.082031 Z M 118.886719 19.925781 " clip-rule="nonzero"/></clipPath><clipPath id="b3b65d0ef7"><path d="M 130.003906 19.925781 C 123.863281 19.925781 118.886719 24.886719 118.886719 31.003906 C 118.886719 37.121094 123.863281 42.082031 130.003906 42.082031 C 136.144531 42.082031 141.121094 37.121094 141.121094 31.003906 C 141.121094 24.886719 136.144531 19.925781 130.003906 19.925781 Z M 130.003906 19.925781 " clip-rule="nonzero"/></clipPath><clipPath id="6b277bc72e"><path d="M 0.886719 0.925781 L 23.128906 0.925781 L 23.128906 23.082031 L 0.886719 23.082031 Z M 0.886719 0.925781 " clip-rule="nonzero"/></clipPath><clipPath id="81c618d08e"><path d="M 12.003906 0.925781 C 5.863281 0.925781 0.886719 5.886719 0.886719 12.003906 C 0.886719 18.121094 5.863281 23.082031 12.003906 23.082031 C 18.144531 23.082031 23.121094 18.121094 23.121094 12.003906 C 23.121094 5.886719 18.144531 0.925781 12.003906 0.925781 Z M 12.003906 0.925781 " clip-rule="nonzero"/></clipPath><clipPath id="ca1a8d2c8e"><rect x="0" width="24" y="0" height="24"/></clipPath><clipPath id="84cb7661ef"><path d="M 48.3125 54.957031 L 70.449219 54.957031 L 70.449219 77.007812 L 48.3125 77.007812 Z M 48.3125 54.957031 " clip-rule="nonzero"/></clipPath><clipPath id="7951a4fdb1"><path d="M 59.375 54.957031 C 53.265625 54.957031 48.3125 59.894531 48.3125 65.984375 C 48.3125 72.074219 53.265625 77.007812 59.375 77.007812 C 65.488281 77.007812 70.441406 72.074219 70.441406 65.984375 C 70.441406 59.894531 65.488281 54.957031 59.375 54.957031 Z M 59.375 54.957031 " clip-rule="nonzero"/></clipPath><clipPath id="f8d6440b11"><path d="M 0.3125 0.957031 L 22.449219 0.957031 L 22.449219 23.007812 L 0.3125 23.007812 Z M 0.3125 0.957031 " clip-rule="nonzero"/></clipPath><clipPath id="3afb5b2e65"><path d="M 11.375 0.957031 C 5.265625 0.957031 0.3125 5.894531 0.3125 11.984375 C 0.3125 18.074219 5.265625 23.007812 11.375 23.007812 C 17.488281 23.007812 22.441406 18.074219 22.441406 11.984375 C 22.441406 5.894531 17.488281 0.957031 11.375 0.957031 Z M 11.375 0.957031 " clip-rule="nonzero"/></clipPath><clipPath id="5c0314b876"><rect x="0" width="23" y="0" height="24"/></clipPath><clipPath id="d6235640b3"><path d="M 96.574219 77.007812 L 115.089844 77.007812 L 115.089844 95.453125 L 96.574219 95.453125 Z M 96.574219 77.007812 " clip-rule="nonzero"/></clipPath><clipPath id="5b5ff141c5"><path d="M 105.828125 77.007812 C 100.714844 77.007812 96.574219 81.136719 96.574219 86.230469 C 96.574219 91.324219 100.714844 95.453125 105.828125 95.453125 C 110.941406 95.453125 115.082031 91.324219 115.082031 86.230469 C 115.082031 81.136719 110.941406 77.007812 105.828125 77.007812 Z M 105.828125 77.007812 " clip-rule="nonzero"/></clipPath><clipPath id="4fbabe2a0b"><path d="M 0.574219 0.0078125 L 19.089844 0.0078125 L 19.089844 18.453125 L 0.574219 18.453125 Z M 0.574219 0.0078125 " clip-rule="nonzero"/></clipPath><clipPath id="489b0801d6"><path d="M 9.828125 0.0078125 C 4.714844 0.0078125 0.574219 4.136719 0.574219 9.230469 C 0.574219 14.324219 4.714844 18.453125 9.828125 18.453125 C 14.941406 18.453125 19.082031 14.324219 19.082031 9.230469 C 19.082031 4.136719 14.941406 0.0078125 9.828125 0.0078125 Z M 9.828125 0.0078125 " clip-rule="nonzero"/></clipPath><clipPath id="7e0b600f3e"><rect x="0" width="20" y="0" height="19"/></clipPath><clipPath id="c7d267fb65"><path d="M 130.070312 113.882812 L 149.265625 113.882812 L 149.265625 133.003906 L 130.070312 133.003906 Z M 130.070312 113.882812 " clip-rule="nonzero"/></clipPath><clipPath id="fed1134656"><path d="M 139.664062 113.882812 C 134.363281 113.882812 130.070312 118.164062 130.070312 123.441406 C 130.070312 128.722656 134.363281 133.003906 139.664062 133.003906 C 144.960938 133.003906 149.257812 128.722656 149.257812 123.441406 C 149.257812 118.164062 144.960938 113.882812 139.664062 113.882812 Z M 139.664062 113.882812 " clip-rule="nonzero"/></clipPath><clipPath id="caf54ba282"><path d="M 0.0703125 0.882812 L 19.265625 0.882812 L 19.265625 20.003906 L 0.0703125 20.003906 Z M 0.0703125 0.882812 " clip-rule="nonzero"/></clipPath><clipPath id="92b324aa0c"><path d="M 9.664062 0.882812 C 4.363281 0.882812 0.0703125 5.164062 0.0703125 10.441406 C 0.0703125 15.722656 4.363281 20.003906 9.664062 20.003906 C 14.960938 20.003906 19.257812 15.722656 19.257812 10.441406 C 19.257812 5.164062 14.960938 0.882812 9.664062 0.882812 Z M 9.664062 0.882812 " clip-rule="nonzero"/></clipPath><clipPath id="4d925ed196"><rect x="0" width="20" y="0" height="21"/></clipPath><clipPath id="b2ca9c81bf"><path d="M 128.140625 53.375 L 170.386719 53.375 L 170.386719 95.453125 L 128.140625 95.453125 Z M 128.140625 53.375 " clip-rule="nonzero"/></clipPath><clipPath id="30696ce4f2"><path d="M 149.257812 53.375 C 137.59375 53.375 128.140625 62.792969 128.140625 74.414062 C 128.140625 86.035156 137.59375 95.453125 149.257812 95.453125 C 160.917969 95.453125 170.371094 86.035156 170.371094 74.414062 C 170.371094 62.792969 160.917969 53.375 149.257812 53.375 Z M 149.257812 53.375 " clip-rule="nonzero"/></clipPath><clipPath id="8029ae5236"><path d="M 0.140625 0.375 L 42.386719 0.375 L 42.386719 42.453125 L 0.140625 42.453125 Z M 0.140625 0.375 " clip-rule="nonzero"/></clipPath><clipPath id="371626010b"><path d="M 21.257812 0.375 C 9.59375 0.375 0.140625 9.792969 0.140625 21.414062 C 0.140625 33.035156 9.59375 42.453125 21.257812 42.453125 C 32.917969 42.453125 42.371094 33.035156 42.371094 21.414062 C 42.371094 9.792969 32.917969 0.375 21.257812 0.375 Z M 21.257812 0.375 " clip-rule="nonzero"/></clipPath><clipPath id="d624078b05"><rect x="0" width="43" y="0" height="43"/></clipPath><clipPath id="4e062294b5"><path d="M 137.5 62.695312 L 161.023438 62.695312 L 161.023438 86.132812 L 137.5 86.132812 Z M 137.5 62.695312 " clip-rule="nonzero"/></clipPath><clipPath id="05c89767c1"><path d="M 149.257812 62.695312 C 142.761719 62.695312 137.5 67.941406 137.5 74.414062 C 137.5 80.886719 142.761719 86.132812 149.257812 86.132812 C 155.75 86.132812 161.015625 80.886719 161.015625 74.414062 C 161.015625 67.941406 155.75 62.695312 149.257812 62.695312 Z M 149.257812 62.695312 " clip-rule="nonzero"/></clipPath><clipPath id="c025cfeb08"><path d="M 0.5 0.695312 L 24.015625 0.695312 L 24.015625 24.132812 L 0.5 24.132812 Z M 0.5 0.695312 " clip-rule="nonzero"/></clipPath><clipPath id="e2f2309272"><path d="M 12.257812 0.695312 C 5.761719 0.695312 0.5 5.941406 0.5 12.414062 C 0.5 18.886719 5.761719 24.132812 12.257812 24.132812 C 18.75 24.132812 24.015625 18.886719 24.015625 12.414062 C 24.015625 5.941406 18.75 0.695312 12.257812 0.695312 Z M 12.257812 0.695312 " clip-rule="nonzero"/></clipPath><clipPath id="20c41c1203"><rect x="0" width="25" y="0" height="25"/></clipPath><clipPath id="82030c082a"><path d="M 81.867188 117.761719 L 94.964844 117.761719 L 94.964844 130.808594 L 81.867188 130.808594 Z M 81.867188 117.761719 " clip-rule="nonzero"/></clipPath><clipPath id="148b45c9ba"><path d="M 88.414062 117.761719 C 84.796875 117.761719 81.867188 120.683594 81.867188 124.285156 C 81.867188 127.886719 84.796875 130.808594 88.414062 130.808594 C 92.027344 130.808594 94.957031 127.886719 94.957031 124.285156 C 94.957031 120.683594 92.027344 117.761719 88.414062 117.761719 Z M 88.414062 117.761719 " clip-rule="nonzero"/></clipPath><clipPath id="f2e7c20868"><path d="M 0.867188 0.761719 L 13.960938 0.761719 L 13.960938 13.808594 L 0.867188 13.808594 Z M 0.867188 0.761719 " clip-rule="nonzero"/></clipPath><clipPath id="6e5e86aa0d"><path d="M 7.414062 0.761719 C 3.796875 0.761719 0.867188 3.683594 0.867188 7.285156 C 0.867188 10.886719 3.796875 13.808594 7.414062 13.808594 C 11.027344 13.808594 13.957031 10.886719 13.957031 7.285156 C 13.957031 3.683594 11.027344 0.761719 7.414062 0.761719 Z M 7.414062 0.761719 " clip-rule="nonzero"/></clipPath><clipPath id="35d74aa529"><rect x="0" width="14" y="0" height="14"/></clipPath><clipPath id="5e3af9bf6e"><path d="M 0.90625 0 L 119 0 L 119 116 L 0.90625 116 Z M 0.90625 0 " clip-rule="nonzero"/></clipPath><clipPath id="fc3469f95c"><path d="M 69 72 L 192 72 L 192 178 L 69 178 Z M 69 72 " clip-rule="nonzero"/></clipPath><clipPath id="6015625c08"><path d="M 0.90625 31 L 137 31 L 137 178 L 0.90625 178 Z M 0.90625 31 " clip-rule="nonzero"/></clipPath><clipPath id="4989de40e8"><path d="M 0.90625 58 L 122 58 L 122 178 L 0.90625 178 Z M 0.90625 58 " clip-rule="nonzero"/></clipPath><clipPath id="0a08870b52"><path d="M 0.90625 31 L 66 31 L 66 162 L 0.90625 162 Z M 0.90625 31 " clip-rule="nonzero"/></clipPath><clipPath id="89e5434b93"><path d="M 42 0 L 181 0 L 181 116 L 42 116 Z M 42 0 " clip-rule="nonzero"/></clipPath><clipPath id="c693801889"><path d="M 0.90625 15 L 110 15 L 110 150 L 0.90625 150 Z M 0.90625 15 " clip-rule="nonzero"/></clipPath><clipPath id="ae50ad9828"><path d="M 15 92 L 173 92 L 173 178 L 15 178 Z M 15 92 " clip-rule="nonzero"/></clipPath><clipPath id="704734ec08"><path d="M 31 90 L 175 90 L 175 178 L 31 178 Z M 31 90 " clip-rule="nonzero"/></clipPath><clipPath id="10707b3936"><path d="M 38 63 L 174 63 L 174 178 L 38 178 Z M 38 63 " clip-rule="nonzero"/></clipPath><clipPath id="40a1a37150"><path d="M 0.90625 5 L 82 5 L 82 148 L 0.90625 148 Z M 0.90625 5 " clip-rule="nonzero"/></clipPath><clipPath id="bb71c6b666"><rect x="0" width="801" y="0" height="178"/></clipPath></defs><g clip-path="url(#1bbc77284d)"><g><g clip-path="url(#bb71c6b666)"><g clip-path="url(#a16de63c65)"><g transform="matrix(1, 0, 0, 1, 178, 22)"><g clip-path="url(#e2a0d3f8af)"><g fill="#000000" fill-opacity="1"><g transform="translate(1.351374, 103.52)"><g><path d="M 8.921875 0 L 8.921875 -68.59375 L 22.46875 -68.59375 L 22.46875 -40.59375 L 23.96875 -40.59375 L 46.875 -68.59375 L 60.765625 -68.59375 L 60.765625 -67.421875 L 35.515625 -36.21875 L 63.390625 -1.171875 L 63.390625 0 L 48.046875 0 L 23.96875 -29.609375 L 22.46875 -29.609375 L 22.46875 0 Z M 8.921875 0 "/></g></g></g><g fill="#000000" fill-opacity="1"><g transform="translate(64.735124, 103.52)"><g><path d="M 22.046875 0 L 8.921875 0 L 8.921875 -68.59375 L 24.453125 -68.59375 L 51.984375 -24.40625 L 53.203125 -24.59375 L 53.203125 -68.59375 L 66.25 -68.59375 L 66.25 0 L 52.359375 0 L 23.21875 -47.203125 L 22.046875 -47.015625 Z M 22.046875 0 "/></g></g></g><g fill="#000000" fill-opacity="1"><g transform="translate(139.941748, 103.52)"><g><path d="M 37.390625 0.984375 C 31.109375 0.984375 25.566406 -0.296875 20.765625 -2.859375 C 15.960938 -5.421875 12.195312 -9.335938 9.46875 -14.609375 C 6.75 -19.878906 5.390625 -26.441406 5.390625 -34.296875 C 5.390625 -42.148438 6.75 -48.710938 9.46875 -53.984375 C 12.195312 -59.253906 15.960938 -63.171875 20.765625 -65.734375 C 25.566406 -68.296875 31.109375 -69.578125 37.390625 -69.578125 C 43.679688 -69.578125 49.21875 -68.300781 54 -65.75 C 58.789062 -63.207031 62.535156 -59.289062 65.234375 -54 C 67.941406 -48.71875 69.296875 -42.148438 69.296875 -34.296875 C 69.296875 -26.441406 67.941406 -19.867188 65.234375 -14.578125 C 62.535156 -9.296875 58.789062 -5.378906 54 -2.828125 C 49.21875 -0.285156 43.679688 0.984375 37.390625 0.984375 Z M 37.390625 -10.796875 C 43.210938 -10.796875 47.65625 -12.660156 50.71875 -16.390625 C 53.78125 -20.128906 55.3125 -26.097656 55.3125 -34.296875 C 55.3125 -42.492188 53.78125 -48.46875 50.71875 -52.21875 C 47.65625 -55.976562 43.210938 -57.859375 37.390625 -57.859375 C 31.546875 -57.859375 27.082031 -55.976562 24 -52.21875 C 20.914062 -48.46875 19.375 -42.492188 19.375 -34.296875 C 19.375 -26.097656 20.914062 -20.128906 24 -16.390625 C 27.082031 -12.660156 31.546875 -10.796875 37.390625 -10.796875 Z M 37.390625 -10.796875 "/></g></g></g><g fill="#000000" fill-opacity="1"><g transform="translate(214.491545, 103.52)"><g><path d="M 32.75 0 L 17.59375 0 L 1.875 -68.59375 L 15.390625 -68.59375 L 25.765625 -20.359375 L 26.9375 -20.359375 L 39.21875 -68.59375 L 50.8125 -68.59375 L 63.34375 -20.359375 L 64.515625 -20.359375 L 74.9375 -68.59375 L 87.96875 -68.59375 L 72.3125 0 L 57.109375 0 L 45.09375 -44.25 L 44.109375 -44.25 Z M 32.75 0 "/></g></g></g><g fill="#000000" fill-opacity="1"><g transform="translate(304.289099, 103.52)"><g><path d="M 8.921875 0 L 8.921875 -68.59375 L 36.453125 -68.59375 C 43.554688 -68.59375 48.914062 -66.957031 52.53125 -63.6875 C 56.144531 -60.425781 57.953125 -55.914062 57.953125 -50.15625 C 57.953125 -46 56.894531 -42.585938 54.78125 -39.921875 C 52.664062 -37.265625 49.515625 -35.234375 45.328125 -33.828125 L 45.328125 -32.84375 C 47.484375 -31.90625 49.222656 -30.515625 50.546875 -28.671875 C 51.878906 -26.828125 53.140625 -24.085938 54.328125 -20.453125 L 61.1875 0 L 47.25 0 L 40.546875 -20.5 C 39.847656 -22.5625 39.066406 -24.164062 38.203125 -25.3125 C 37.347656 -26.457031 36.253906 -27.285156 34.921875 -27.796875 C 33.597656 -28.316406 31.875 -28.578125 29.75 -28.578125 L 22.46875 -28.578125 L 22.46875 0 Z M 34.8125 -39.3125 C 41.382812 -39.3125 44.671875 -42.378906 44.671875 -48.515625 C 44.671875 -54.742188 41.382812 -57.859375 34.8125 -57.859375 L 22.46875 -57.859375 L 22.46875 -39.3125 Z M 34.8125 -39.3125 "/></g></g></g><g fill="#000000" fill-opacity="1"><g transform="translate(368.423507, 103.52)"><g><path d="M 22.46875 0 L 8.921875 0 L 8.921875 -68.59375 L 22.46875 -68.59375 Z M 22.46875 0 "/></g></g></g><g fill="#000000" fill-opacity="1"><g transform="translate(399.857343, 103.52)"><g><path d="M 54.984375 -68.59375 L 54.984375 -57.203125 L 35.1875 -57.203125 L 35.1875 0 L 21.671875 0 L 21.671875 -57.203125 L 1.875 -57.203125 L 1.875 -68.59375 Z M 54.984375 -68.59375 "/></g></g></g><g fill="#000000" fill-opacity="1"><g transform="translate(456.719743, 103.52)"><g><path d="M 53.203125 -42.796875 L 53.203125 -68.59375 L 66.71875 -68.59375 L 66.71875 0 L 53.203125 0 L 53.203125 -31.25 L 22.46875 -31.25 L 22.46875 0 L 8.921875 0 L 8.921875 -68.59375 L 22.46875 -68.59375 L 22.46875 -42.796875 Z M 53.203125 -42.796875 "/></g></g></g><g fill="#000000" fill-opacity="1"><g transform="translate(532.395552, 103.52)"><g><path d="M 21.34375 0 L 8.921875 0 L 8.921875 -68.59375 L 26.65625 -68.59375 L 44.015625 -18.15625 L 45 -18.15625 L 62.265625 -68.59375 L 79.578125 -68.59375 L 79.578125 0 L 66.71875 0 L 66.71875 -45.328125 L 65.546875 -45.515625 L 49.6875 0 L 38.375 0 L 22.515625 -45.515625 L 21.34375 -45.328125 Z M 21.34375 0 "/></g></g></g></g></g></g><g clip-path="url(#ac7419e24d)"><g clip-path="url(#8eb23a6f20)"><g transform="matrix(1, 0, 0, 1, 60, 0)"><g clip-path="url(#3759e30c59)"><g clip-path="url(#813347e38a)"><g clip-path="url(#a02cd9b5ad)"><path fill="#000000" d="M 0.75 0 L 42.996094 0 L 42.996094 42.082031 L 0.75 42.082031 Z M 0.75 0 " fill-opacity="1" fill-rule="nonzero"/></g></g></g></g></g></g><g clip-path="url(#5ed767ee03)"><g clip-path="url(#d82e460670)"><g transform="matrix(1, 0, 0, 1, 70, 9)"><g clip-path="url(#06465294e1)"><g clip-path="url(#dffb733bb0)"><g clip-path="url(#d1e65db450)"><path fill="#ffffff" d="M 0.105469 0.324219 L 23.632812 0.324219 L 23.632812 23.757812 L 0.105469 23.757812 Z M 0.105469 0.324219 " fill-opacity="1" fill-rule="nonzero"/></g></g></g></g></g></g><g clip-path="url(#8c92c1cf60)"><g clip-path="url(#b3b65d0ef7)"><g transform="matrix(1, 0, 0, 1, 118, 19)"><g clip-path="url(#ca1a8d2c8e)"><g clip-path="url(#6b277bc72e)"><g clip-path="url(#81c618d08e)"><path fill="#000000" d="M 0.886719 0.925781 L 23.128906 0.925781 L 23.128906 23.082031 L 0.886719 23.082031 Z M 0.886719 0.925781 " fill-opacity="1" fill-rule="nonzero"/></g></g></g></g></g></g><g clip-path="url(#84cb7661ef)"><g clip-path="url(#7951a4fdb1)"><g transform="matrix(1, 0, 0, 1, 48, 54)"><g clip-path="url(#5c0314b876)"><g clip-path="url(#f8d6440b11)"><g clip-path="url(#3afb5b2e65)"><path fill="#000000" d="M 0.3125 0.957031 L 22.449219 0.957031 L 22.449219 23.007812 L 0.3125 23.007812 Z M 0.3125 0.957031 " fill-opacity="1" fill-rule="nonzero"/></g></g></g></g></g></g><g clip-path="url(#d6235640b3)"><g clip-path="url(#5b5ff141c5)"><g transform="matrix(1, 0, 0, 1, 96, 77)"><g clip-path="url(#7e0b600f3e)"><g clip-path="url(#4fbabe2a0b)"><g clip-path="url(#489b0801d6)"><path fill="#000000" d="M 0.574219 0.0078125 L 19.089844 0.0078125 L 19.089844 18.453125 L 0.574219 18.453125 Z M 0.574219 0.0078125 " fill-opacity="1" fill-rule="nonzero"/></g></g></g></g></g></g><g clip-path="url(#c7d267fb65)"><g clip-path="url(#fed1134656)"><g transform="matrix(1, 0, 0, 1, 130, 113)"><g clip-path="url(#4d925ed196)"><g clip-path="url(#caf54ba282)"><g clip-path="url(#92b324aa0c)"><path fill="#000000" d="M 0.0703125 0.882812 L 19.265625 0.882812 L 19.265625 20.003906 L 0.0703125 20.003906 Z M 0.0703125 0.882812 " fill-opacity="1" fill-rule="nonzero"/></g></g></g></g></g></g><g clip-path="url(#b2ca9c81bf)"><g clip-path="url(#30696ce4f2)"><g transform="matrix(1, 0, 0, 1, 128, 53)"><g clip-path="url(#d624078b05)"><g clip-path="url(#8029ae5236)"><g clip-path="url(#371626010b)"><path fill="#000000" d="M 0.140625 0.375 L 42.386719 0.375 L 42.386719 42.453125 L 0.140625 42.453125 Z M 0.140625 0.375 " fill-opacity="1" fill-rule="nonzero"/></g></g></g></g></g></g><g clip-path="url(#4e062294b5)"><g clip-path="url(#05c89767c1)"><g transform="matrix(1, 0, 0, 1, 137, 62)"><g clip-path="url(#20c41c1203)"><g clip-path="url(#c025cfeb08)"><g clip-path="url(#e2f2309272)"><path fill="#ffffff" d="M 0.5 0.695312 L 24.023438 0.695312 L 24.023438 24.132812 L 0.5 24.132812 Z M 0.5 0.695312 " fill-opacity="1" fill-rule="nonzero"/></g></g></g></g></g></g><g clip-path="url(#82030c082a)"><g clip-path="url(#148b45c9ba)"><g transform="matrix(1, 0, 0, 1, 81, 117)"><g clip-path="url(#35d74aa529)"><g clip-path="url(#f2e7c20868)"><g clip-path="url(#6e5e86aa0d)"><path fill="#000000" d="M 0.867188 0.761719 L 13.964844 0.761719 L 13.964844 13.808594 L 0.867188 13.808594 Z M 0.867188 0.761719 " fill-opacity="1" fill-rule="nonzero"/></g></g></g></g></g></g><g clip-path="url(#5e3af9bf6e)"><path stroke-linecap="butt" transform="matrix(0.373338, -0.382095, 0.382095, 0.373338, 20.385293, 61.059817)" fill="none" stroke-linejoin="miter" d="M -0.00196044 8.501169 L 115.960156 8.500926 " stroke="#000000" stroke-width="17" stroke-opacity="1" stroke-miterlimit="4"/></g><path stroke-linecap="butt" transform="matrix(0.381523, -0.373922, 0.373922, 0.381523, 117.793524, 112.22122)" fill="none" stroke-linejoin="miter" d="M 0.000171518 8.501948 L 69.081939 8.499779 " stroke="#000000" stroke-width="17" stroke-opacity="1" stroke-miterlimit="4"/><g clip-path="url(#fc3469f95c)"><path stroke-linecap="butt" transform="matrix(0.37178, -0.38361, 0.38361, 0.37178, 117.710656, 140.577476)" fill="none" stroke-linejoin="miter" d="M 0.000806849 8.50264 L 50.719624 8.500565 " stroke="#000000" stroke-width="17" stroke-opacity="1" stroke-miterlimit="4"/></g><g clip-path="url(#6015625c08)"><path stroke-linecap="butt" transform="matrix(0.394728, 0.359954, -0.359954, 0.394728, 17.327198, 79.838643)" fill="none" stroke-linejoin="miter" d="M 0.00455921 8.499592 L 178.918588 8.50323 " stroke="#000000" stroke-width="17" stroke-opacity="1" stroke-miterlimit="4"/></g><g clip-path="url(#4989de40e8)"><path stroke-linecap="butt" transform="matrix(0.395233, 0.3594, -0.3594, 0.395233, 14.211354, 106.761075)" fill="none" stroke-linejoin="miter" d="M 0.000397481 8.501001 L 150.000861 8.500909 " stroke="#000000" stroke-width="17" stroke-opacity="1" stroke-miterlimit="4"/></g><g clip-path="url(#0a08870b52)"><path stroke-linecap="butt" transform="matrix(-0.0607509, 0.530742, -0.530742, -0.0607509, 18.679652, 81.861713)" fill="none" stroke-linejoin="miter" d="M 2.92586 7.981806 C 30.038516 17.934988 47.11321 17.930944 54.150774 7.976939 " stroke="#000000" stroke-width="17" stroke-opacity="1" stroke-miterlimit="4"/></g><g clip-path="url(#89e5434b93)"><path stroke-linecap="butt" transform="matrix(0.399316, -0.354858, 0.354858, 0.399316, 90.607427, 60.838666)" fill="none" stroke-linejoin="miter" d="M -0.000102086 8.503721 L 89.527693 8.504037 " stroke="#000000" stroke-width="17" stroke-opacity="1" stroke-miterlimit="4"/></g><g clip-path="url(#c693801889)"><path stroke-linecap="butt" transform="matrix(0.390842, 0.364171, -0.364171, 0.390842, 28.177471, 64.001661)" fill="none" stroke-linejoin="miter" d="M 0.000532149 8.500539 L 85.036275 8.503645 " stroke="#000000" stroke-width="17" stroke-opacity="1" stroke-miterlimit="4"/></g><path stroke-linecap="butt" transform="matrix(0.517208, -0.133692, 0.133692, 0.517208, 53.719098, 95.836814)" fill="none" stroke-linejoin="miter" d="M 7.190254 6.599922 C 28.736104 40.733115 60.547992 40.731379 102.624089 6.601793 " stroke="#000000" stroke-width="17" stroke-opacity="1" stroke-miterlimit="4"/><g clip-path="url(#ae50ad9828)"><path stroke-linecap="butt" transform="matrix(0.509103, -0.161839, 0.161839, 0.509103, 61.84333, 158.302795)" fill="none" stroke-linejoin="miter" d="M 7.588574 7.556843 C 22.222088 36.516177 57.601879 36.514756 113.744101 7.550039 " stroke="#000000" stroke-width="17" stroke-opacity="1" stroke-miterlimit="4"/></g><g clip-path="url(#704734ec08)"><path stroke-linecap="butt" transform="matrix(0.531659, -0.0521195, 0.0521195, 0.531659, 79.309802, 142.899267)" fill="none" stroke-linejoin="miter" d="M 6.103778 5.91624 C 31.164573 31.78145 56.204059 31.782122 81.222951 5.91098 " stroke="#000000" stroke-width="17" stroke-opacity="1" stroke-miterlimit="4"/></g><g clip-path="url(#10707b3936)"><path stroke-linecap="butt" transform="matrix(0.507348, -0.167258, 0.167258, 0.507348, 84.97695, 122.521728)" fill="none" stroke-linejoin="miter" d="M 7.503499 7.504727 C 16.750019 24.858421 37.716039 24.856295 70.376145 7.505371 " stroke="#000000" stroke-width="17" stroke-opacity="1" stroke-miterlimit="4"/></g><path stroke-linecap="butt" transform="matrix(0.514385, -0.144171, 0.144171, 0.514385, 59.567767, 67.314762)" fill="none" stroke-linejoin="miter" d="M 7.47839 7.528953 C 16.846593 24.879463 38.080134 24.87707 71.169999 7.526843 " stroke="#000000" stroke-width="17" stroke-opacity="1" stroke-miterlimit="4"/><g clip-path="url(#40a1a37150)"><path stroke-linecap="butt" transform="matrix(-0.257583, 0.468005, -0.468005, -0.257583, 35.026123, 57.982794)" fill="none" stroke-linejoin="miter" d="M 2.767246 8.039544 C 30.726495 17.665958 58.652146 17.662195 86.547724 8.034661 " stroke="#000000" stroke-width="17" stroke-opacity="1" stroke-miterlimit="4"/></g></g></g></g></svg>