<svg xmlns="http://www.w3.org/2000/svg" xmlns:xlink="http://www.w3.org/1999/xlink" width="1108" zoomAndPan="magnify" viewBox="0 0 830.88 249.749984" height="333" preserveAspectRatio="xMidYMid meet" version="1.0"><defs><g/><clipPath id="f048eca395"><rect x="0" width="555" y="0" height="119"/></clipPath><clipPath id="9277ba7fe5"><rect x="0" width="430" y="0" height="83"/></clipPath><clipPath id="0c2fb1afac"><path d="M 84.292969 0 L 143.542969 0 L 143.542969 59.019531 L 84.292969 59.019531 Z M 84.292969 0 " clip-rule="nonzero"/></clipPath><clipPath id="819fc9b918"><path d="M 113.90625 0 C 97.550781 0 84.292969 13.210938 84.292969 29.511719 C 84.292969 45.808594 97.550781 59.019531 113.90625 59.019531 C 130.261719 59.019531 143.519531 45.808594 143.519531 29.511719 C 143.519531 13.210938 130.261719 0 113.90625 0 Z M 113.90625 0 " clip-rule="nonzero"/></clipPath><clipPath id="f6d054a6e4"><path d="M 0.292969 0 L 59.542969 0 L 59.542969 59.019531 L 0.292969 59.019531 Z M 0.292969 0 " clip-rule="nonzero"/></clipPath><clipPath id="bce987ffa2"><path d="M 29.90625 0 C 13.550781 0 0.292969 13.210938 0.292969 29.511719 C 0.292969 45.808594 13.550781 59.019531 29.90625 59.019531 C 46.261719 59.019531 59.519531 45.808594 59.519531 29.511719 C 59.519531 13.210938 46.261719 0 29.90625 0 Z M 29.90625 0 " clip-rule="nonzero"/></clipPath><clipPath id="5bac686cbf"><rect x="0" width="60" y="0" height="60"/></clipPath><clipPath id="2a69573bac"><path d="M 97.414062 13.074219 L 130.410156 13.074219 L 130.410156 45.945312 L 97.414062 45.945312 Z M 97.414062 13.074219 " clip-rule="nonzero"/></clipPath><clipPath id="940854d6d9"><path d="M 113.90625 13.074219 C 104.796875 13.074219 97.414062 20.433594 97.414062 29.511719 C 97.414062 38.585938 104.796875 45.945312 113.90625 45.945312 C 123.015625 45.945312 130.398438 38.585938 130.398438 29.511719 C 130.398438 20.433594 123.015625 13.074219 113.90625 13.074219 Z M 113.90625 13.074219 " clip-rule="nonzero"/></clipPath><clipPath id="26273b1825"><path d="M 0.414062 0.0742188 L 33.410156 0.0742188 L 33.410156 32.945312 L 0.414062 32.945312 Z M 0.414062 0.0742188 " clip-rule="nonzero"/></clipPath><clipPath id="c78396ad3b"><path d="M 16.90625 0.0742188 C 7.796875 0.0742188 0.414062 7.433594 0.414062 16.511719 C 0.414062 25.585938 7.796875 32.945312 16.90625 32.945312 C 26.015625 32.945312 33.398438 25.585938 33.398438 16.511719 C 33.398438 7.433594 26.015625 0.0742188 16.90625 0.0742188 Z M 16.90625 0.0742188 " clip-rule="nonzero"/></clipPath><clipPath id="aad8ba56c3"><rect x="0" width="34" y="0" height="33"/></clipPath><clipPath id="cc6d3f84f7"><path d="M 165.828125 27.949219 L 197.023438 27.949219 L 197.023438 59.019531 L 165.828125 59.019531 Z M 165.828125 27.949219 " clip-rule="nonzero"/></clipPath><clipPath id="add2bfaf9a"><path d="M 181.421875 27.949219 C 172.8125 27.949219 165.828125 34.902344 165.828125 43.484375 C 165.828125 52.0625 172.8125 59.019531 181.421875 59.019531 C 190.03125 59.019531 197.011719 52.0625 197.011719 43.484375 C 197.011719 34.902344 190.03125 27.949219 181.421875 27.949219 Z M 181.421875 27.949219 " clip-rule="nonzero"/></clipPath><clipPath id="4d8fd33cf9"><path d="M 0.828125 0.949219 L 32.023438 0.949219 L 32.023438 32.019531 L 0.828125 32.019531 Z M 0.828125 0.949219 " clip-rule="nonzero"/></clipPath><clipPath id="9d690eb99a"><path d="M 16.421875 0.949219 C 7.8125 0.949219 0.828125 7.902344 0.828125 16.484375 C 0.828125 25.0625 7.8125 32.019531 16.421875 32.019531 C 25.03125 32.019531 32.011719 25.0625 32.011719 16.484375 C 32.011719 7.902344 25.03125 0.949219 16.421875 0.949219 Z M 16.421875 0.949219 " clip-rule="nonzero"/></clipPath><clipPath id="014f49ca4a"><rect x="0" width="33" y="0" height="33"/></clipPath><clipPath id="ce63566e7d"><path d="M 66.84375 77.082031 L 97.894531 77.082031 L 97.894531 108.007812 L 66.84375 108.007812 Z M 66.84375 77.082031 " clip-rule="nonzero"/></clipPath><clipPath id="978ab52340"><path d="M 82.363281 77.082031 C 73.792969 77.082031 66.84375 84.003906 66.84375 92.542969 C 66.84375 101.085938 73.792969 108.007812 82.363281 108.007812 C 90.933594 108.007812 97.882812 101.085938 97.882812 92.542969 C 97.882812 84.003906 90.933594 77.082031 82.363281 77.082031 Z M 82.363281 77.082031 " clip-rule="nonzero"/></clipPath><clipPath id="9bad0681c6"><path d="M 0.84375 0.0820312 L 31.894531 0.0820312 L 31.894531 31.007812 L 0.84375 31.007812 Z M 0.84375 0.0820312 " clip-rule="nonzero"/></clipPath><clipPath id="e7c5c5f607"><path d="M 16.363281 0.0820312 C 7.792969 0.0820312 0.84375 7.003906 0.84375 15.542969 C 0.84375 24.085938 7.792969 31.007812 16.363281 31.007812 C 24.933594 31.007812 31.882812 24.085938 31.882812 15.542969 C 31.882812 7.003906 24.933594 0.0820312 16.363281 0.0820312 Z M 16.363281 0.0820312 " clip-rule="nonzero"/></clipPath><clipPath id="15baa40ca3"><rect x="0" width="32" y="0" height="32"/></clipPath><clipPath id="f3107d44af"><path d="M 134.535156 108.007812 L 160.503906 108.007812 L 160.503906 133.878906 L 134.535156 133.878906 Z M 134.535156 108.007812 " clip-rule="nonzero"/></clipPath><clipPath id="1ea5198108"><path d="M 147.515625 108.007812 C 140.347656 108.007812 134.535156 113.800781 134.535156 120.945312 C 134.535156 128.089844 140.347656 133.878906 147.515625 133.878906 C 154.683594 133.878906 160.496094 128.089844 160.496094 120.945312 C 160.496094 113.800781 154.683594 108.007812 147.515625 108.007812 Z M 147.515625 108.007812 " clip-rule="nonzero"/></clipPath><clipPath id="9716a0a42d"><path d="M 0.535156 0.0078125 L 26.503906 0.0078125 L 26.503906 25.878906 L 0.535156 25.878906 Z M 0.535156 0.0078125 " clip-rule="nonzero"/></clipPath><clipPath id="176cdf003a"><path d="M 13.515625 0.0078125 C 6.347656 0.0078125 0.535156 5.800781 0.535156 12.945312 C 0.535156 20.089844 6.347656 25.878906 13.515625 25.878906 C 20.683594 25.878906 26.496094 20.089844 26.496094 12.945312 C 26.496094 5.800781 20.683594 0.0078125 13.515625 0.0078125 Z M 13.515625 0.0078125 " clip-rule="nonzero"/></clipPath><clipPath id="1497f2c06d"><rect x="0" width="27" y="0" height="26"/></clipPath><clipPath id="8710f7079e"><path d="M 181.515625 159.726562 L 208.433594 159.726562 L 208.433594 186.542969 L 181.515625 186.542969 Z M 181.515625 159.726562 " clip-rule="nonzero"/></clipPath><clipPath id="58bac56eac"><path d="M 194.96875 159.726562 C 187.539062 159.726562 181.515625 165.730469 181.515625 173.132812 C 181.515625 180.539062 187.539062 186.542969 194.96875 186.542969 C 202.402344 186.542969 208.425781 180.539062 208.425781 173.132812 C 208.425781 165.730469 202.402344 159.726562 194.96875 159.726562 Z M 194.96875 159.726562 " clip-rule="nonzero"/></clipPath><clipPath id="885fb4fc1e"><path d="M 0.515625 0.726562 L 27.433594 0.726562 L 27.433594 27.542969 L 0.515625 27.542969 Z M 0.515625 0.726562 " clip-rule="nonzero"/></clipPath><clipPath id="50ba94779c"><path d="M 13.96875 0.726562 C 6.539062 0.726562 0.515625 6.730469 0.515625 14.132812 C 0.515625 21.539062 6.539062 27.542969 13.96875 27.542969 C 21.402344 27.542969 27.425781 21.539062 27.425781 14.132812 C 27.425781 6.730469 21.402344 0.726562 13.96875 0.726562 Z M 13.96875 0.726562 " clip-rule="nonzero"/></clipPath><clipPath id="72ef8e9e6b"><rect x="0" width="28" y="0" height="28"/></clipPath><clipPath id="10091da6d8"><path d="M 178.8125 74.859375 L 238.0625 74.859375 L 238.0625 133.878906 L 178.8125 133.878906 Z M 178.8125 74.859375 " clip-rule="nonzero"/></clipPath><clipPath id="f53f551846"><path d="M 208.425781 74.859375 C 192.070312 74.859375 178.8125 88.070312 178.8125 104.367188 C 178.8125 120.667969 192.070312 133.878906 208.425781 133.878906 C 224.78125 133.878906 238.039062 120.667969 238.039062 104.367188 C 238.039062 88.070312 224.78125 74.859375 208.425781 74.859375 Z M 208.425781 74.859375 " clip-rule="nonzero"/></clipPath><clipPath id="2c8d702c33"><path d="M 0.8125 0.859375 L 60.0625 0.859375 L 60.0625 59.878906 L 0.8125 59.878906 Z M 0.8125 0.859375 " clip-rule="nonzero"/></clipPath><clipPath id="f9087c7748"><path d="M 30.425781 0.859375 C 14.070312 0.859375 0.8125 14.070312 0.8125 30.367188 C 0.8125 46.667969 14.070312 59.878906 30.425781 59.878906 C 46.78125 59.878906 60.039062 46.667969 60.039062 30.367188 C 60.039062 14.070312 46.78125 0.859375 30.425781 0.859375 Z M 30.425781 0.859375 " clip-rule="nonzero"/></clipPath><clipPath id="e3aa341c2a"><rect x="0" width="61" y="0" height="60"/></clipPath><clipPath id="5af705d129"><path d="M 191.933594 87.933594 L 224.929688 87.933594 L 224.929688 120.804688 L 191.933594 120.804688 Z M 191.933594 87.933594 " clip-rule="nonzero"/></clipPath><clipPath id="87019e2df8"><path d="M 208.425781 87.933594 C 199.316406 87.933594 191.933594 95.292969 191.933594 104.367188 C 191.933594 113.445312 199.316406 120.804688 208.425781 120.804688 C 217.535156 120.804688 224.917969 113.445312 224.917969 104.367188 C 224.917969 95.292969 217.535156 87.933594 208.425781 87.933594 Z M 208.425781 87.933594 " clip-rule="nonzero"/></clipPath><clipPath id="cadad4594a"><path d="M 0.933594 0.933594 L 33.929688 0.933594 L 33.929688 33.804688 L 0.933594 33.804688 Z M 0.933594 0.933594 " clip-rule="nonzero"/></clipPath><clipPath id="001d0a95b9"><path d="M 17.425781 0.933594 C 8.316406 0.933594 0.933594 8.292969 0.933594 17.367188 C 0.933594 26.445312 8.316406 33.804688 17.425781 33.804688 C 26.535156 33.804688 33.917969 26.445312 33.917969 17.367188 C 33.917969 8.292969 26.535156 0.933594 17.425781 0.933594 Z M 17.425781 0.933594 " clip-rule="nonzero"/></clipPath><clipPath id="1a2724f277"><rect x="0" width="34" y="0" height="34"/></clipPath><clipPath id="3125ba16ae"><path d="M 113.90625 165.164062 L 132.277344 165.164062 L 132.277344 183.464844 L 113.90625 183.464844 Z M 113.90625 165.164062 " clip-rule="nonzero"/></clipPath><clipPath id="7d151eba76"><path d="M 123.089844 165.164062 C 118.015625 165.164062 113.90625 169.261719 113.90625 174.316406 C 113.90625 179.367188 118.015625 183.464844 123.089844 183.464844 C 128.160156 183.464844 132.269531 179.367188 132.269531 174.316406 C 132.269531 169.261719 128.160156 165.164062 123.089844 165.164062 Z M 123.089844 165.164062 " clip-rule="nonzero"/></clipPath><clipPath id="5d8121490b"><path d="M 0.90625 0.164062 L 19.277344 0.164062 L 19.277344 18.464844 L 0.90625 18.464844 Z M 0.90625 0.164062 " clip-rule="nonzero"/></clipPath><clipPath id="7f5c80ce07"><path d="M 10.089844 0.164062 C 5.015625 0.164062 0.90625 4.261719 0.90625 9.316406 C 0.90625 14.367188 5.015625 18.464844 10.089844 18.464844 C 15.160156 18.464844 19.269531 14.367188 19.269531 9.316406 C 19.269531 4.261719 15.160156 0.164062 10.089844 0.164062 Z M 10.089844 0.164062 " clip-rule="nonzero"/></clipPath><clipPath id="3d92cce28c"><rect x="0" width="20" y="0" height="19"/></clipPath><clipPath id="1325474130"><path d="M 0.355469 0 L 166 0 L 166 163 L 0.355469 163 Z M 0.355469 0 " clip-rule="nonzero"/></clipPath><clipPath id="4b5c7e3f35"><path d="M 96 102 L 268 102 L 268 249.5 L 96 249.5 Z M 96 102 " clip-rule="nonzero"/></clipPath><clipPath id="ea7732c352"><path d="M 0.355469 44 L 191 44 L 191 249.5 L 0.355469 249.5 Z M 0.355469 44 " clip-rule="nonzero"/></clipPath><clipPath id="48f1dea16b"><path d="M 0.355469 82 L 170 82 L 170 249.5 L 0.355469 249.5 Z M 0.355469 82 " clip-rule="nonzero"/></clipPath><clipPath id="de5245ca62"><path d="M 0.355469 44 L 92 44 L 92 227 L 0.355469 227 Z M 0.355469 44 " clip-rule="nonzero"/></clipPath><clipPath id="ffac6b7d8d"><path d="M 0.355469 22 L 153 22 L 153 210 L 0.355469 210 Z M 0.355469 22 " clip-rule="nonzero"/></clipPath><clipPath id="dbcd594c11"><path d="M 20 129 L 241 129 L 241 249.5 L 20 249.5 Z M 20 129 " clip-rule="nonzero"/></clipPath><clipPath id="6559386219"><path d="M 43 126 L 244 126 L 244 249.5 L 43 249.5 Z M 43 126 " clip-rule="nonzero"/></clipPath><clipPath id="e035290381"><path d="M 53 88 L 243 88 L 243 249.5 L 53 249.5 Z M 53 88 " clip-rule="nonzero"/></clipPath><clipPath id="1da3df5d14"><path d="M 0.355469 8 L 114 8 L 114 208 L 0.355469 208 Z M 0.355469 8 " clip-rule="nonzero"/></clipPath></defs><g transform="matrix(1, 0, 0, 1, 253, 26)"><g clip-path="url(#f048eca395)"><g fill="#000000" fill-opacity="1"><g transform="translate(1.100643, 92.213492)"><g><path d="M 7.9375 0 L 7.9375 -61.140625 L 20.03125 -61.140625 L 20.03125 -36.171875 L 21.375 -36.171875 L 41.78125 -61.140625 L 54.15625 -61.140625 L 54.15625 -60.09375 L 31.65625 -32.28125 L 56.5 -1.046875 L 56.5 0 L 42.828125 0 L 21.375 -26.390625 L 20.03125 -26.390625 L 20.03125 0 Z M 7.9375 0 "/></g></g></g><g fill="#000000" fill-opacity="1"><g transform="translate(57.591103, 92.213492)"><g><path d="M 19.65625 0 L 7.9375 0 L 7.9375 -61.140625 L 21.78125 -61.140625 L 46.328125 -21.75 L 47.421875 -21.90625 L 47.421875 -61.140625 L 59.046875 -61.140625 L 59.046875 0 L 46.671875 0 L 20.703125 -42.0625 L 19.65625 -41.90625 Z M 19.65625 0 "/></g></g></g><g fill="#000000" fill-opacity="1"><g transform="translate(124.618642, 92.213492)"><g><path d="M 33.328125 0.875 C 27.722656 0.875 22.78125 -0.265625 18.5 -2.546875 C 14.21875 -4.835938 10.863281 -8.332031 8.4375 -13.03125 C 6.019531 -17.726562 4.8125 -23.570312 4.8125 -30.5625 C 4.8125 -37.5625 6.019531 -43.410156 8.4375 -48.109375 C 10.863281 -52.804688 14.21875 -56.296875 18.5 -58.578125 C 22.78125 -60.867188 27.722656 -62.015625 33.328125 -62.015625 C 38.929688 -62.015625 43.863281 -60.878906 48.125 -58.609375 C 52.394531 -56.335938 55.734375 -52.84375 58.140625 -48.125 C 60.554688 -43.414062 61.765625 -37.5625 61.765625 -30.5625 C 61.765625 -23.570312 60.554688 -17.71875 58.140625 -13 C 55.734375 -8.289062 52.394531 -4.800781 48.125 -2.53125 C 43.863281 -0.257812 38.929688 0.875 33.328125 0.875 Z M 33.328125 -9.625 C 38.515625 -9.625 42.472656 -11.285156 45.203125 -14.609375 C 47.929688 -17.941406 49.296875 -23.257812 49.296875 -30.5625 C 49.296875 -37.875 47.929688 -43.203125 45.203125 -46.546875 C 42.472656 -49.890625 38.515625 -51.5625 33.328125 -51.5625 C 28.117188 -51.5625 24.140625 -49.890625 21.390625 -46.546875 C 18.640625 -43.203125 17.265625 -37.875 17.265625 -30.5625 C 17.265625 -23.257812 18.640625 -17.941406 21.390625 -14.609375 C 24.140625 -11.285156 28.117188 -9.625 33.328125 -9.625 Z M 33.328125 -9.625 "/></g></g></g><g fill="#000000" fill-opacity="1"><g transform="translate(191.060788, 92.213492)"><g><path d="M 29.1875 0 L 15.6875 0 L 1.671875 -61.140625 L 13.71875 -61.140625 L 22.953125 -18.15625 L 24 -18.15625 L 34.953125 -61.140625 L 45.28125 -61.140625 L 56.453125 -18.15625 L 57.5 -18.15625 L 66.78125 -61.140625 L 78.40625 -61.140625 L 64.4375 0 L 50.890625 0 L 40.1875 -39.4375 L 39.3125 -39.4375 Z M 29.1875 0 "/></g></g></g><g fill="#000000" fill-opacity="1"><g transform="translate(271.092422, 92.213492)"><g><path d="M 7.9375 0 L 7.9375 -61.140625 L 32.484375 -61.140625 C 38.816406 -61.140625 43.59375 -59.679688 46.8125 -56.765625 C 50.03125 -53.847656 51.640625 -49.828125 51.640625 -44.703125 C 51.640625 -40.992188 50.695312 -37.953125 48.8125 -35.578125 C 46.9375 -33.210938 44.128906 -31.40625 40.390625 -30.15625 L 40.390625 -29.265625 C 42.316406 -28.429688 43.867188 -27.191406 45.046875 -25.546875 C 46.234375 -23.898438 47.359375 -21.460938 48.421875 -18.234375 L 54.53125 0 L 42.109375 0 L 36.125 -18.28125 C 35.507812 -20.113281 34.816406 -21.539062 34.046875 -22.5625 C 33.285156 -23.582031 32.3125 -24.320312 31.125 -24.78125 C 29.945312 -25.238281 28.410156 -25.46875 26.515625 -25.46875 L 20.03125 -25.46875 L 20.03125 0 Z M 31.03125 -35.046875 C 36.882812 -35.046875 39.8125 -37.773438 39.8125 -43.234375 C 39.8125 -48.785156 36.882812 -51.5625 31.03125 -51.5625 L 20.03125 -51.5625 L 20.03125 -35.046875 Z M 31.03125 -35.046875 "/></g></g></g><g fill="#000000" fill-opacity="1"><g transform="translate(328.251903, 92.213492)"><g><path d="M 20.03125 0 L 7.9375 0 L 7.9375 -61.140625 L 20.03125 -61.140625 Z M 20.03125 0 "/></g></g></g><g fill="#000000" fill-opacity="1"><g transform="translate(356.267156, 92.213492)"><g><path d="M 49.015625 -61.140625 L 49.015625 -50.96875 L 31.359375 -50.96875 L 31.359375 0 L 19.3125 0 L 19.3125 -50.96875 L 1.671875 -50.96875 L 1.671875 -61.140625 Z M 49.015625 -61.140625 "/></g></g></g><g fill="#000000" fill-opacity="1"><g transform="translate(406.945495, 92.213492)"><g><path d="M 47.421875 -38.140625 L 47.421875 -61.140625 L 59.46875 -61.140625 L 59.46875 0 L 47.421875 0 L 47.421875 -27.84375 L 20.03125 -27.84375 L 20.03125 0 L 7.9375 0 L 7.9375 -61.140625 L 20.03125 -61.140625 L 20.03125 -38.140625 Z M 47.421875 -38.140625 "/></g></g></g><g fill="#000000" fill-opacity="1"><g transform="translate(474.391193, 92.213492)"><g><path d="M 19.03125 0 L 7.9375 0 L 7.9375 -61.140625 L 23.75 -61.140625 L 39.21875 -16.1875 L 40.109375 -16.1875 L 55.484375 -61.140625 L 70.921875 -61.140625 L 70.921875 0 L 59.46875 0 L 59.46875 -40.390625 L 58.421875 -40.5625 L 44.28125 0 L 34.203125 0 L 20.078125 -40.5625 L 19.03125 -40.390625 Z M 19.03125 0 "/></g></g></g></g></g><g transform="matrix(1, 0, 0, 1, 253, 134)"><g clip-path="url(#9277ba7fe5)"><g fill="#000000" fill-opacity="1"><g transform="translate(0.73186, 36.030657)"><g><path d="M 19.59375 -24.453125 L 19.59375 -20.390625 L 12.546875 -20.390625 L 12.546875 0 L 7.71875 0 L 7.71875 -20.390625 L 0.671875 -20.390625 L 0.671875 -24.453125 Z M 19.59375 -24.453125 "/></g></g></g><g fill="#000000" fill-opacity="1"><g transform="translate(20.998444, 36.030657)"><g><path d="M 18.96875 -15.25 L 18.96875 -24.453125 L 23.78125 -24.453125 L 23.78125 0 L 18.96875 0 L 18.96875 -11.140625 L 8.015625 -11.140625 L 8.015625 0 L 3.171875 0 L 3.171875 -24.453125 L 8.015625 -24.453125 L 8.015625 -15.25 Z M 18.96875 -15.25 "/></g></g></g><g fill="#000000" fill-opacity="1"><g transform="translate(47.970391, 36.030657)"><g><path d="M 8.015625 -10.734375 L 8.015625 -4.046875 L 19.6875 -4.046875 L 19.6875 0 L 3.171875 0 L 3.171875 -24.453125 L 19.421875 -24.453125 L 19.421875 -20.40625 L 8.015625 -20.40625 L 8.015625 -14.6875 L 17.984375 -14.6875 L 17.984375 -10.734375 Z M 8.015625 -10.734375 "/></g></g></g><g fill="#000000" fill-opacity="1"><g transform="translate(68.989447, 36.030657)"><g/></g></g><g fill="#000000" fill-opacity="1"><g transform="translate(77.065982, 36.030657)"><g><path d="M 23.46875 0 L 18.375 0 L 16.546875 -5.640625 L 7.171875 -5.640625 L 5.328125 0 L 0.375 0 L 8.8125 -24.453125 L 15.015625 -24.453125 Z M 11.625 -19.34375 L 8.484375 -9.703125 L 15.203125 -9.703125 L 12.046875 -19.34375 Z M 11.625 -19.34375 "/></g></g></g><g fill="#000000" fill-opacity="1"><g transform="translate(100.894268, 36.030657)"><g><path d="M 8.015625 -24.453125 L 8.015625 -4.046875 L 19 -4.046875 L 19 0 L 3.171875 0 L 3.171875 -24.453125 Z M 8.015625 -24.453125 "/></g></g></g><g fill="#000000" fill-opacity="1"><g transform="translate(120.040406, 36.030657)"><g><path d="M 11.875 0.34375 C 9.832031 0.34375 8.066406 -0.117188 6.578125 -1.046875 C 5.085938 -1.972656 3.9375 -3.375 3.125 -5.25 C 2.320312 -7.132812 1.921875 -9.457031 1.921875 -12.21875 C 1.921875 -15.007812 2.40625 -17.34375 3.375 -19.21875 C 4.34375 -21.101562 5.6875 -22.503906 7.40625 -23.421875 C 9.132812 -24.335938 11.132812 -24.796875 13.40625 -24.796875 C 15.75 -24.796875 17.742188 -24.359375 19.390625 -23.484375 C 21.046875 -22.617188 22.207031 -21.328125 22.875 -19.609375 L 19.34375 -17.46875 L 18.9375 -17.5 C 18.425781 -18.582031 17.71875 -19.375 16.8125 -19.875 C 15.90625 -20.382812 14.769531 -20.640625 13.40625 -20.640625 C 11.300781 -20.640625 9.691406 -19.972656 8.578125 -18.640625 C 7.460938 -17.304688 6.90625 -15.164062 6.90625 -12.21875 C 6.90625 -9.269531 7.425781 -7.125 8.46875 -5.78125 C 9.507812 -4.445312 11.050781 -3.78125 13.09375 -3.78125 C 14.851562 -3.78125 16.148438 -4.175781 16.984375 -4.96875 C 17.828125 -5.757812 18.25 -6.941406 18.25 -8.515625 L 18.25 -9.5625 L 12.453125 -9.5625 L 12.453125 -13.5 L 23.046875 -13.5 L 23.046875 0 L 18.421875 0 L 18.421875 -3.28125 L 18.078125 -3.328125 C 17.578125 -2.160156 16.816406 -1.253906 15.796875 -0.609375 C 14.773438 0.0234375 13.46875 0.34375 11.875 0.34375 Z M 11.875 0.34375 "/></g></g></g><g fill="#000000" fill-opacity="1"><g transform="translate(145.540852, 36.030657)"><g><path d="M 13.328125 0.34375 C 11.085938 0.34375 9.109375 -0.109375 7.390625 -1.015625 C 5.679688 -1.929688 4.34375 -3.328125 3.375 -5.203125 C 2.40625 -7.085938 1.921875 -9.425781 1.921875 -12.21875 C 1.921875 -15.019531 2.40625 -17.359375 3.375 -19.234375 C 4.34375 -21.117188 5.679688 -22.515625 7.390625 -23.421875 C 9.109375 -24.335938 11.085938 -24.796875 13.328125 -24.796875 C 15.566406 -24.796875 17.539062 -24.34375 19.25 -23.4375 C 20.957031 -22.53125 22.289062 -21.132812 23.25 -19.25 C 24.21875 -17.363281 24.703125 -15.019531 24.703125 -12.21875 C 24.703125 -9.425781 24.21875 -7.085938 23.25 -5.203125 C 22.289062 -3.316406 20.957031 -1.921875 19.25 -1.015625 C 17.539062 -0.109375 15.566406 0.34375 13.328125 0.34375 Z M 13.328125 -3.84375 C 15.398438 -3.84375 16.984375 -4.507812 18.078125 -5.84375 C 19.171875 -7.175781 19.71875 -9.300781 19.71875 -12.21875 C 19.71875 -15.144531 19.171875 -17.273438 18.078125 -18.609375 C 16.984375 -19.953125 15.398438 -20.625 13.328125 -20.625 C 11.242188 -20.625 9.648438 -19.953125 8.546875 -18.609375 C 7.453125 -17.273438 6.90625 -15.144531 6.90625 -12.21875 C 6.90625 -9.300781 7.453125 -7.175781 8.546875 -5.84375 C 9.648438 -4.507812 11.242188 -3.84375 13.328125 -3.84375 Z M 13.328125 -3.84375 "/></g></g></g><g fill="#000000" fill-opacity="1"><g transform="translate(172.178367, 36.030657)"><g><path d="M 3.171875 0 L 3.171875 -24.453125 L 13 -24.453125 C 15.53125 -24.453125 17.4375 -23.867188 18.71875 -22.703125 C 20.007812 -21.535156 20.65625 -19.925781 20.65625 -17.875 C 20.65625 -16.394531 20.273438 -15.179688 19.515625 -14.234375 C 18.765625 -13.285156 17.644531 -12.5625 16.15625 -12.0625 L 16.15625 -11.703125 C 16.925781 -11.367188 17.546875 -10.875 18.015625 -10.21875 C 18.492188 -9.5625 18.941406 -8.585938 19.359375 -7.296875 L 21.8125 0 L 16.84375 0 L 14.453125 -7.3125 C 14.203125 -8.039062 13.921875 -8.609375 13.609375 -9.015625 C 13.304688 -9.429688 12.914062 -9.726562 12.4375 -9.90625 C 11.96875 -10.09375 11.359375 -10.1875 10.609375 -10.1875 L 8.015625 -10.1875 L 8.015625 0 Z M 12.40625 -14.015625 C 14.75 -14.015625 15.921875 -15.109375 15.921875 -17.296875 C 15.921875 -19.515625 14.75 -20.625 12.40625 -20.625 L 8.015625 -20.625 L 8.015625 -14.015625 Z M 12.40625 -14.015625 "/></g></g></g><g fill="#000000" fill-opacity="1"><g transform="translate(195.036799, 36.030657)"><g><path d="M 8.015625 0 L 3.171875 0 L 3.171875 -24.453125 L 8.015625 -24.453125 Z M 8.015625 0 "/></g></g></g><g fill="#000000" fill-opacity="1"><g transform="translate(206.240274, 36.030657)"><g><path d="M 19.59375 -24.453125 L 19.59375 -20.390625 L 12.546875 -20.390625 L 12.546875 0 L 7.71875 0 L 7.71875 -20.390625 L 0.671875 -20.390625 L 0.671875 -24.453125 Z M 19.59375 -24.453125 "/></g></g></g><g fill="#000000" fill-opacity="1"><g transform="translate(226.506858, 36.030657)"><g><path d="M 18.96875 -15.25 L 18.96875 -24.453125 L 23.78125 -24.453125 L 23.78125 0 L 18.96875 0 L 18.96875 -11.140625 L 8.015625 -11.140625 L 8.015625 0 L 3.171875 0 L 3.171875 -24.453125 L 8.015625 -24.453125 L 8.015625 -15.25 Z M 18.96875 -15.25 "/></g></g></g><g fill="#000000" fill-opacity="1"><g transform="translate(253.478805, 36.030657)"><g><path d="M 7.609375 0 L 3.171875 0 L 3.171875 -24.453125 L 9.5 -24.453125 L 15.6875 -6.46875 L 16.03125 -6.46875 L 22.1875 -24.453125 L 28.359375 -24.453125 L 28.359375 0 L 23.78125 0 L 23.78125 -16.15625 L 23.359375 -16.21875 L 17.703125 0 L 13.6875 0 L 8.03125 -16.21875 L 7.609375 -16.15625 Z M 7.609375 0 "/></g></g></g><g fill="#000000" fill-opacity="1"><g transform="translate(285.032472, 36.030657)"><g/></g></g><g fill="#000000" fill-opacity="1"><g transform="translate(293.109006, 36.030657)"><g><path d="M 3.171875 0 L 3.171875 -24.453125 L 13.609375 -24.453125 C 15.117188 -24.453125 16.394531 -24.210938 17.4375 -23.734375 C 18.476562 -23.265625 19.265625 -22.59375 19.796875 -21.71875 C 20.335938 -20.84375 20.609375 -19.804688 20.609375 -18.609375 C 20.609375 -17.523438 20.34375 -16.570312 19.8125 -15.75 C 19.289062 -14.925781 18.539062 -14.265625 17.5625 -13.765625 L 17.5625 -13.40625 C 19.101562 -13.007812 20.289062 -12.28125 21.125 -11.21875 C 21.957031 -10.164062 22.375 -8.867188 22.375 -7.328125 C 22.375 -4.984375 21.664062 -3.175781 20.25 -1.90625 C 18.84375 -0.632812 16.753906 0 13.984375 0 Z M 12.609375 -14.703125 C 14.859375 -14.703125 15.984375 -15.71875 15.984375 -17.75 C 15.984375 -18.78125 15.703125 -19.550781 15.140625 -20.0625 C 14.585938 -20.570312 13.742188 -20.828125 12.609375 -20.828125 L 8.015625 -20.828125 L 8.015625 -14.703125 Z M 13.5 -3.828125 C 16.164062 -3.828125 17.5 -5.035156 17.5 -7.453125 C 17.5 -9.890625 16.164062 -11.109375 13.5 -11.109375 L 8.015625 -11.109375 L 8.015625 -3.828125 Z M 13.5 -3.828125 "/></g></g></g><g fill="#000000" fill-opacity="1"><g transform="translate(317.0209, 36.030657)"><g><path d="M 8.015625 -10.734375 L 8.015625 -4.046875 L 19.6875 -4.046875 L 19.6875 0 L 3.171875 0 L 3.171875 -24.453125 L 19.421875 -24.453125 L 19.421875 -20.40625 L 8.015625 -20.40625 L 8.015625 -14.6875 L 17.984375 -14.6875 L 17.984375 -10.734375 Z M 8.015625 -10.734375 "/></g></g></g><g fill="#000000" fill-opacity="1"><g transform="translate(338.039975, 36.030657)"><g><path d="M 18.96875 -15.25 L 18.96875 -24.453125 L 23.78125 -24.453125 L 23.78125 0 L 18.96875 0 L 18.96875 -11.140625 L 8.015625 -11.140625 L 8.015625 0 L 3.171875 0 L 3.171875 -24.453125 L 8.015625 -24.453125 L 8.015625 -15.25 Z M 18.96875 -15.25 "/></g></g></g><g fill="#000000" fill-opacity="1"><g transform="translate(365.011903, 36.030657)"><g><path d="M 8.015625 0 L 3.171875 0 L 3.171875 -24.453125 L 8.015625 -24.453125 Z M 8.015625 0 "/></g></g></g><g fill="#000000" fill-opacity="1"><g transform="translate(376.215378, 36.030657)"><g><path d="M 7.859375 0 L 3.171875 0 L 3.171875 -24.453125 L 8.71875 -24.453125 L 18.53125 -8.703125 L 18.96875 -8.765625 L 18.96875 -24.453125 L 23.609375 -24.453125 L 23.609375 0 L 18.65625 0 L 8.28125 -16.828125 L 7.859375 -16.75 Z M 7.859375 0 "/></g></g></g><g fill="#000000" fill-opacity="1"><g transform="translate(403.020089, 36.030657)"><g><path d="M 11.96875 -24.453125 C 15.9375 -24.453125 18.96875 -23.425781 21.0625 -21.375 C 23.15625 -19.320312 24.203125 -16.269531 24.203125 -12.21875 C 24.203125 -8.1875 23.15625 -5.140625 21.0625 -3.078125 C 18.96875 -1.023438 15.9375 0 11.96875 0 L 3.171875 0 L 3.171875 -24.453125 Z M 11.6875 -4.0625 C 14.207031 -4.0625 16.09375 -4.703125 17.34375 -5.984375 C 18.59375 -7.273438 19.21875 -9.351562 19.21875 -12.21875 C 19.21875 -15.082031 18.59375 -17.160156 17.34375 -18.453125 C 16.09375 -19.742188 14.207031 -20.390625 11.6875 -20.390625 L 8.015625 -20.390625 L 8.015625 -4.0625 Z M 11.6875 -4.0625 "/></g></g></g><g fill="#000000" fill-opacity="1"><g transform="translate(0.73186, 72.002846)"><g><path d="M 10.84375 0.34375 C 9.144531 0.34375 7.632812 0.132812 6.3125 -0.28125 C 4.988281 -0.695312 3.882812 -1.242188 3 -1.921875 C 2.125 -2.597656 1.453125 -3.347656 0.984375 -4.171875 L 3.640625 -7.40625 L 4.0625 -7.40625 C 4.800781 -6.3125 5.734375 -5.441406 6.859375 -4.796875 C 7.992188 -4.148438 9.320312 -3.828125 10.84375 -3.828125 C 12.132812 -3.828125 13.109375 -4.097656 13.765625 -4.640625 C 14.421875 -5.191406 14.75 -5.945312 14.75 -6.90625 C 14.75 -7.488281 14.640625 -7.972656 14.421875 -8.359375 C 14.210938 -8.753906 13.863281 -9.085938 13.375 -9.359375 C 12.882812 -9.640625 12.222656 -9.878906 11.390625 -10.078125 L 8.25 -10.796875 C 6.050781 -11.304688 4.410156 -12.140625 3.328125 -13.296875 C 2.253906 -14.460938 1.71875 -15.976562 1.71875 -17.84375 C 1.71875 -19.226562 2.0625 -20.441406 2.75 -21.484375 C 3.445312 -22.535156 4.457031 -23.347656 5.78125 -23.921875 C 7.101562 -24.503906 8.679688 -24.796875 10.515625 -24.796875 C 12.398438 -24.796875 14.015625 -24.546875 15.359375 -24.046875 C 16.703125 -23.554688 17.835938 -22.800781 18.765625 -21.78125 L 16.375 -18.5 L 15.953125 -18.5 C 15.265625 -19.21875 14.472656 -19.757812 13.578125 -20.125 C 12.679688 -20.488281 11.660156 -20.671875 10.515625 -20.671875 C 9.191406 -20.671875 8.179688 -20.4375 7.484375 -19.96875 C 6.796875 -19.5 6.453125 -18.851562 6.453125 -18.03125 C 6.453125 -17.257812 6.691406 -16.644531 7.171875 -16.1875 C 7.660156 -15.726562 8.503906 -15.375 9.703125 -15.125 L 12.90625 -14.453125 C 15.28125 -13.953125 17.003906 -13.097656 18.078125 -11.890625 C 19.148438 -10.691406 19.6875 -9.128906 19.6875 -7.203125 C 19.6875 -5.679688 19.351562 -4.351562 18.6875 -3.21875 C 18.03125 -2.082031 17.039062 -1.203125 15.71875 -0.578125 C 14.394531 0.0351562 12.769531 0.34375 10.84375 0.34375 Z M 10.84375 0.34375 "/></g></g></g><g fill="#000000" fill-opacity="1"><g transform="translate(21.734195, 72.002846)"><g><path d="M 7.609375 0 L 3.171875 0 L 3.171875 -24.453125 L 9.5 -24.453125 L 15.6875 -6.46875 L 16.03125 -6.46875 L 22.1875 -24.453125 L 28.359375 -24.453125 L 28.359375 0 L 23.78125 0 L 23.78125 -16.15625 L 23.359375 -16.21875 L 17.703125 0 L 13.6875 0 L 8.03125 -16.21875 L 7.609375 -16.15625 Z M 7.609375 0 "/></g></g></g><g fill="#000000" fill-opacity="1"><g transform="translate(53.287861, 72.002846)"><g><path d="M 23.46875 0 L 18.375 0 L 16.546875 -5.640625 L 7.171875 -5.640625 L 5.328125 0 L 0.375 0 L 8.8125 -24.453125 L 15.015625 -24.453125 Z M 11.625 -19.34375 L 8.484375 -9.703125 L 15.203125 -9.703125 L 12.046875 -19.34375 Z M 11.625 -19.34375 "/></g></g></g><g fill="#000000" fill-opacity="1"><g transform="translate(77.116148, 72.002846)"><g><path d="M 3.171875 0 L 3.171875 -24.453125 L 13 -24.453125 C 15.53125 -24.453125 17.4375 -23.867188 18.71875 -22.703125 C 20.007812 -21.535156 20.65625 -19.925781 20.65625 -17.875 C 20.65625 -16.394531 20.273438 -15.179688 19.515625 -14.234375 C 18.765625 -13.285156 17.644531 -12.5625 16.15625 -12.0625 L 16.15625 -11.703125 C 16.925781 -11.367188 17.546875 -10.875 18.015625 -10.21875 C 18.492188 -9.5625 18.941406 -8.585938 19.359375 -7.296875 L 21.8125 0 L 16.84375 0 L 14.453125 -7.3125 C 14.203125 -8.039062 13.921875 -8.609375 13.609375 -9.015625 C 13.304688 -9.429688 12.914062 -9.726562 12.4375 -9.90625 C 11.96875 -10.09375 11.359375 -10.1875 10.609375 -10.1875 L 8.015625 -10.1875 L 8.015625 0 Z M 12.40625 -14.015625 C 14.75 -14.015625 15.921875 -15.109375 15.921875 -17.296875 C 15.921875 -19.515625 14.75 -20.625 12.40625 -20.625 L 8.015625 -20.625 L 8.015625 -14.015625 Z M 12.40625 -14.015625 "/></g></g></g><g fill="#000000" fill-opacity="1"><g transform="translate(99.690274, 72.002846)"><g><path d="M 19.59375 -24.453125 L 19.59375 -20.390625 L 12.546875 -20.390625 L 12.546875 0 L 7.71875 0 L 7.71875 -20.390625 L 0.671875 -20.390625 L 0.671875 -24.453125 Z M 19.59375 -24.453125 "/></g></g></g><g fill="#000000" fill-opacity="1"><g transform="translate(119.956858, 72.002846)"><g><path d="M 8.015625 -10.734375 L 8.015625 -4.046875 L 19.6875 -4.046875 L 19.6875 0 L 3.171875 0 L 3.171875 -24.453125 L 19.421875 -24.453125 L 19.421875 -20.40625 L 8.015625 -20.40625 L 8.015625 -14.6875 L 17.984375 -14.6875 L 17.984375 -10.734375 Z M 8.015625 -10.734375 "/></g></g></g><g fill="#000000" fill-opacity="1"><g transform="translate(140.975914, 72.002846)"><g><path d="M 3.171875 0 L 3.171875 -24.453125 L 13 -24.453125 C 15.53125 -24.453125 17.4375 -23.867188 18.71875 -22.703125 C 20.007812 -21.535156 20.65625 -19.925781 20.65625 -17.875 C 20.65625 -16.394531 20.273438 -15.179688 19.515625 -14.234375 C 18.765625 -13.285156 17.644531 -12.5625 16.15625 -12.0625 L 16.15625 -11.703125 C 16.925781 -11.367188 17.546875 -10.875 18.015625 -10.21875 C 18.492188 -9.5625 18.941406 -8.585938 19.359375 -7.296875 L 21.8125 0 L 16.84375 0 L 14.453125 -7.3125 C 14.203125 -8.039062 13.921875 -8.609375 13.609375 -9.015625 C 13.304688 -9.429688 12.914062 -9.726562 12.4375 -9.90625 C 11.96875 -10.09375 11.359375 -10.1875 10.609375 -10.1875 L 8.015625 -10.1875 L 8.015625 0 Z M 12.40625 -14.015625 C 14.75 -14.015625 15.921875 -15.109375 15.921875 -17.296875 C 15.921875 -19.515625 14.75 -20.625 12.40625 -20.625 L 8.015625 -20.625 L 8.015625 -14.015625 Z M 12.40625 -14.015625 "/></g></g></g><g fill="#000000" fill-opacity="1"><g transform="translate(163.834346, 72.002846)"><g/></g></g><g fill="#000000" fill-opacity="1"><g transform="translate(171.910881, 72.002846)"><g><path d="M 3.171875 0 L 3.171875 -24.453125 L 8.015625 -24.453125 L 8.015625 -14.46875 L 8.546875 -14.46875 L 16.703125 -24.453125 L 21.65625 -24.453125 L 21.65625 -24.03125 L 12.65625 -12.90625 L 22.59375 -0.421875 L 22.59375 0 L 17.125 0 L 8.546875 -10.546875 L 8.015625 -10.546875 L 8.015625 0 Z M 3.171875 0 "/></g></g></g><g fill="#000000" fill-opacity="1"><g transform="translate(194.501767, 72.002846)"><g><path d="M 7.859375 0 L 3.171875 0 L 3.171875 -24.453125 L 8.71875 -24.453125 L 18.53125 -8.703125 L 18.96875 -8.765625 L 18.96875 -24.453125 L 23.609375 -24.453125 L 23.609375 0 L 18.65625 0 L 8.28125 -16.828125 L 7.859375 -16.75 Z M 7.859375 0 "/></g></g></g><g fill="#000000" fill-opacity="1"><g transform="translate(221.306499, 72.002846)"><g><path d="M 13.328125 0.34375 C 11.085938 0.34375 9.109375 -0.109375 7.390625 -1.015625 C 5.679688 -1.929688 4.34375 -3.328125 3.375 -5.203125 C 2.40625 -7.085938 1.921875 -9.425781 1.921875 -12.21875 C 1.921875 -15.019531 2.40625 -17.359375 3.375 -19.234375 C 4.34375 -21.117188 5.679688 -22.515625 7.390625 -23.421875 C 9.109375 -24.335938 11.085938 -24.796875 13.328125 -24.796875 C 15.566406 -24.796875 17.539062 -24.34375 19.25 -23.4375 C 20.957031 -22.53125 22.289062 -21.132812 23.25 -19.25 C 24.21875 -17.363281 24.703125 -15.019531 24.703125 -12.21875 C 24.703125 -9.425781 24.21875 -7.085938 23.25 -5.203125 C 22.289062 -3.316406 20.957031 -1.921875 19.25 -1.015625 C 17.539062 -0.109375 15.566406 0.34375 13.328125 0.34375 Z M 13.328125 -3.84375 C 15.398438 -3.84375 16.984375 -4.507812 18.078125 -5.84375 C 19.171875 -7.175781 19.71875 -9.300781 19.71875 -12.21875 C 19.71875 -15.144531 19.171875 -17.273438 18.078125 -18.609375 C 16.984375 -19.953125 15.398438 -20.625 13.328125 -20.625 C 11.242188 -20.625 9.648438 -19.953125 8.546875 -18.609375 C 7.453125 -17.273438 6.90625 -15.144531 6.90625 -12.21875 C 6.90625 -9.300781 7.453125 -7.175781 8.546875 -5.84375 C 9.648438 -4.507812 11.242188 -3.84375 13.328125 -3.84375 Z M 13.328125 -3.84375 "/></g></g></g><g fill="#000000" fill-opacity="1"><g transform="translate(247.877127, 72.002846)"><g><path d="M 11.671875 0 L 6.265625 0 L 0.671875 -24.453125 L 5.484375 -24.453125 L 9.1875 -7.265625 L 9.59375 -7.265625 L 13.984375 -24.453125 L 18.109375 -24.453125 L 22.578125 -7.265625 L 23 -7.265625 L 26.703125 -24.453125 L 31.359375 -24.453125 L 25.765625 0 L 20.359375 0 L 16.078125 -15.765625 L 15.71875 -15.765625 Z M 11.671875 0 "/></g></g></g><g fill="#000000" fill-opacity="1"><g transform="translate(279.882277, 72.002846)"><g><path d="M 8.015625 -24.453125 L 8.015625 -4.046875 L 19 -4.046875 L 19 0 L 3.171875 0 L 3.171875 -24.453125 Z M 8.015625 -24.453125 "/></g></g></g><g fill="#000000" fill-opacity="1"><g transform="translate(299.680656, 72.002846)"><g><path d="M 8.015625 -10.734375 L 8.015625 -4.046875 L 19.6875 -4.046875 L 19.6875 0 L 3.171875 0 L 3.171875 -24.453125 L 19.421875 -24.453125 L 19.421875 -20.40625 L 8.015625 -20.40625 L 8.015625 -14.6875 L 17.984375 -14.6875 L 17.984375 -10.734375 Z M 8.015625 -10.734375 "/></g></g></g><g fill="#000000" fill-opacity="1"><g transform="translate(320.699712, 72.002846)"><g><path d="M 11.96875 -24.453125 C 15.9375 -24.453125 18.96875 -23.425781 21.0625 -21.375 C 23.15625 -19.320312 24.203125 -16.269531 24.203125 -12.21875 C 24.203125 -8.1875 23.15625 -5.140625 21.0625 -3.078125 C 18.96875 -1.023438 15.9375 0 11.96875 0 L 3.171875 0 L 3.171875 -24.453125 Z M 11.6875 -4.0625 C 14.207031 -4.0625 16.09375 -4.703125 17.34375 -5.984375 C 18.59375 -7.273438 19.21875 -9.351562 19.21875 -12.21875 C 19.21875 -15.082031 18.59375 -17.160156 17.34375 -18.453125 C 16.09375 -19.742188 14.207031 -20.390625 11.6875 -20.390625 L 8.015625 -20.390625 L 8.015625 -4.0625 Z M 11.6875 -4.0625 "/></g></g></g><g fill="#000000" fill-opacity="1"><g transform="translate(346.83558, 72.002846)"><g><path d="M 11.875 0.34375 C 9.832031 0.34375 8.066406 -0.117188 6.578125 -1.046875 C 5.085938 -1.972656 3.9375 -3.375 3.125 -5.25 C 2.320312 -7.132812 1.921875 -9.457031 1.921875 -12.21875 C 1.921875 -15.007812 2.40625 -17.34375 3.375 -19.21875 C 4.34375 -21.101562 5.6875 -22.503906 7.40625 -23.421875 C 9.132812 -24.335938 11.132812 -24.796875 13.40625 -24.796875 C 15.75 -24.796875 17.742188 -24.359375 19.390625 -23.484375 C 21.046875 -22.617188 22.207031 -21.328125 22.875 -19.609375 L 19.34375 -17.46875 L 18.9375 -17.5 C 18.425781 -18.582031 17.71875 -19.375 16.8125 -19.875 C 15.90625 -20.382812 14.769531 -20.640625 13.40625 -20.640625 C 11.300781 -20.640625 9.691406 -19.972656 8.578125 -18.640625 C 7.460938 -17.304688 6.90625 -15.164062 6.90625 -12.21875 C 6.90625 -9.269531 7.425781 -7.125 8.46875 -5.78125 C 9.507812 -4.445312 11.050781 -3.78125 13.09375 -3.78125 C 14.851562 -3.78125 16.148438 -4.175781 16.984375 -4.96875 C 17.828125 -5.757812 18.25 -6.941406 18.25 -8.515625 L 18.25 -9.5625 L 12.453125 -9.5625 L 12.453125 -13.5 L 23.046875 -13.5 L 23.046875 0 L 18.421875 0 L 18.421875 -3.28125 L 18.078125 -3.328125 C 17.578125 -2.160156 16.816406 -1.253906 15.796875 -0.609375 C 14.773438 0.0234375 13.46875 0.34375 11.875 0.34375 Z M 11.875 0.34375 "/></g></g></g><g fill="#000000" fill-opacity="1"><g transform="translate(372.336006, 72.002846)"><g><path d="M 8.015625 -10.734375 L 8.015625 -4.046875 L 19.6875 -4.046875 L 19.6875 0 L 3.171875 0 L 3.171875 -24.453125 L 19.421875 -24.453125 L 19.421875 -20.40625 L 8.015625 -20.40625 L 8.015625 -14.6875 L 17.984375 -14.6875 L 17.984375 -10.734375 Z M 8.015625 -10.734375 "/></g></g></g></g></g><g clip-path="url(#0c2fb1afac)"><g clip-path="url(#819fc9b918)"><g transform="matrix(1, 0, 0, 1, 84, -0.000000000000040364)"><g clip-path="url(#5bac686cbf)"><g clip-path="url(#f6d054a6e4)"><g clip-path="url(#bce987ffa2)"><path fill="#000000" d="M 0.292969 0 L 59.542969 0 L 59.542969 59.019531 L 0.292969 59.019531 Z M 0.292969 0 " fill-opacity="1" fill-rule="nonzero"/></g></g></g></g></g></g><g clip-path="url(#2a69573bac)"><g clip-path="url(#940854d6d9)"><g transform="matrix(1, 0, 0, 1, 97, 13)"><g clip-path="url(#aad8ba56c3)"><g clip-path="url(#26273b1825)"><g clip-path="url(#c78396ad3b)"><path fill="#ffffff" d="M 0.414062 0.0742188 L 33.410156 0.0742188 L 33.410156 32.945312 L 0.414062 32.945312 Z M 0.414062 0.0742188 " fill-opacity="1" fill-rule="nonzero"/></g></g></g></g></g></g><g clip-path="url(#cc6d3f84f7)"><g clip-path="url(#add2bfaf9a)"><g transform="matrix(1, 0, 0, 1, 165, 27)"><g clip-path="url(#014f49ca4a)"><g clip-path="url(#4d8fd33cf9)"><g clip-path="url(#9d690eb99a)"><path fill="#000000" d="M 0.828125 0.949219 L 32.023438 0.949219 L 32.023438 32.019531 L 0.828125 32.019531 Z M 0.828125 0.949219 " fill-opacity="1" fill-rule="nonzero"/></g></g></g></g></g></g><g clip-path="url(#ce63566e7d)"><g clip-path="url(#978ab52340)"><g transform="matrix(1, 0, 0, 1, 66, 77)"><g clip-path="url(#15baa40ca3)"><g clip-path="url(#9bad0681c6)"><g clip-path="url(#e7c5c5f607)"><path fill="#000000" d="M 0.84375 0.0820312 L 31.894531 0.0820312 L 31.894531 31.007812 L 0.84375 31.007812 Z M 0.84375 0.0820312 " fill-opacity="1" fill-rule="nonzero"/></g></g></g></g></g></g><g clip-path="url(#f3107d44af)"><g clip-path="url(#1ea5198108)"><g transform="matrix(1, 0, 0, 1, 134, 108)"><g clip-path="url(#1497f2c06d)"><g clip-path="url(#9716a0a42d)"><g clip-path="url(#176cdf003a)"><path fill="#000000" d="M 0.535156 0.0078125 L 26.503906 0.0078125 L 26.503906 25.878906 L 0.535156 25.878906 Z M 0.535156 0.0078125 " fill-opacity="1" fill-rule="nonzero"/></g></g></g></g></g></g><g clip-path="url(#8710f7079e)"><g clip-path="url(#58bac56eac)"><g transform="matrix(1, 0, 0, 1, 181, 159)"><g clip-path="url(#72ef8e9e6b)"><g clip-path="url(#885fb4fc1e)"><g clip-path="url(#50ba94779c)"><path fill="#000000" d="M 0.515625 0.726562 L 27.433594 0.726562 L 27.433594 27.542969 L 0.515625 27.542969 Z M 0.515625 0.726562 " fill-opacity="1" fill-rule="nonzero"/></g></g></g></g></g></g><g clip-path="url(#10091da6d8)"><g clip-path="url(#f53f551846)"><g transform="matrix(1, 0, 0, 1, 178, 74)"><g clip-path="url(#e3aa341c2a)"><g clip-path="url(#2c8d702c33)"><g clip-path="url(#f9087c7748)"><path fill="#000000" d="M 0.8125 0.859375 L 60.0625 0.859375 L 60.0625 59.878906 L 0.8125 59.878906 Z M 0.8125 0.859375 " fill-opacity="1" fill-rule="nonzero"/></g></g></g></g></g></g><g clip-path="url(#5af705d129)"><g clip-path="url(#87019e2df8)"><g transform="matrix(1, 0, 0, 1, 191, 87)"><g clip-path="url(#1a2724f277)"><g clip-path="url(#cadad4594a)"><g clip-path="url(#001d0a95b9)"><path fill="#ffffff" d="M 0.933594 0.933594 L 33.929688 0.933594 L 33.929688 33.804688 L 0.933594 33.804688 Z M 0.933594 0.933594 " fill-opacity="1" fill-rule="nonzero"/></g></g></g></g></g></g><g clip-path="url(#3125ba16ae)"><g clip-path="url(#7d151eba76)"><g transform="matrix(1, 0, 0, 1, 113, 165)"><g clip-path="url(#3d92cce28c)"><g clip-path="url(#5d8121490b)"><g clip-path="url(#7f5c80ce07)"><path fill="#000000" d="M 0.90625 0.164062 L 19.277344 0.164062 L 19.277344 18.464844 L 0.90625 18.464844 Z M 0.90625 0.164062 " fill-opacity="1" fill-rule="nonzero"/></g></g></g></g></g></g><g clip-path="url(#1325474130)"><path stroke-linecap="butt" transform="matrix(0.523623, -0.535905, 0.535905, 0.523623, 27.677457, 85.639124)" fill="none" stroke-linejoin="miter" d="M 0.00168461 8.501575 L 115.962074 8.500066 " stroke="#000000" stroke-width="17" stroke-opacity="1" stroke-miterlimit="4"/></g><path stroke-linecap="butt" transform="matrix(0.535103, -0.524443, 0.524443, 0.535103, 164.296883, 157.395302)" fill="none" stroke-linejoin="miter" d="M -0.00223142 8.500867 L 69.086909 8.498843 " stroke="#000000" stroke-width="17" stroke-opacity="1" stroke-miterlimit="4"/><g clip-path="url(#4b5c7e3f35)"><path stroke-linecap="butt" transform="matrix(0.521439, -0.538031, 0.538031, 0.521439, 164.180645, 197.166219)" fill="none" stroke-linejoin="miter" d="M 0.000760881 8.499264 L 50.715241 8.500775 " stroke="#000000" stroke-width="17" stroke-opacity="1" stroke-miterlimit="4"/></g><g clip-path="url(#ea7732c352)"><path stroke-linecap="butt" transform="matrix(0.553624, 0.504852, -0.504852, 0.553624, 23.38834, 111.977278)" fill="none" stroke-linejoin="miter" d="M 0.00101438 8.500001 L 178.92125 8.499685 " stroke="#000000" stroke-width="17" stroke-opacity="1" stroke-miterlimit="4"/></g><g clip-path="url(#48f1dea16b)"><path stroke-linecap="butt" transform="matrix(0.554332, 0.504075, -0.504075, 0.554332, 19.01823, 149.737205)" fill="none" stroke-linejoin="miter" d="M 0.000943565 8.499487 L 149.997933 8.498877 " stroke="#000000" stroke-width="17" stroke-opacity="1" stroke-miterlimit="4"/></g><g clip-path="url(#de5245ca62)"><path stroke-linecap="butt" transform="matrix(-0.0852058, 0.744389, -0.744389, -0.0852058, 25.285221, 114.814719)" fill="none" stroke-linejoin="miter" d="M 2.930402 7.976844 C 30.039978 17.929775 47.115952 17.932541 54.152553 7.980554 " stroke="#000000" stroke-width="17" stroke-opacity="1" stroke-miterlimit="4"/></g><path stroke-linecap="butt" transform="matrix(0.560059, -0.497704, 0.497704, 0.560059, 126.167159, 85.328961)" fill="none" stroke-linejoin="miter" d="M 0.0004493 8.501084 L 89.528242 8.500693 " stroke="#000000" stroke-width="17" stroke-opacity="1" stroke-miterlimit="4"/><g clip-path="url(#ffac6b7d8d)"><path stroke-linecap="butt" transform="matrix(0.548173, 0.510766, -0.510766, 0.548173, 38.606337, 89.765201)" fill="none" stroke-linejoin="miter" d="M 0.00178919 8.500357 L 85.036755 8.501505 " stroke="#000000" stroke-width="17" stroke-opacity="1" stroke-miterlimit="4"/></g><path stroke-linecap="butt" transform="matrix(0.725407, -0.18751, 0.18751, 0.725407, 74.42963, 134.41544)" fill="none" stroke-linejoin="miter" d="M 7.189746 6.600672 C 28.732955 40.730895 60.546786 40.731661 102.621143 6.600361 " stroke="#000000" stroke-width="17" stroke-opacity="1" stroke-miterlimit="4"/><g clip-path="url(#dbcd594c11)"><path stroke-linecap="butt" transform="matrix(0.71404, -0.226987, 0.226987, 0.71404, 85.82422, 222.026785)" fill="none" stroke-linejoin="miter" d="M 7.58764 7.555224 C 22.216474 36.517104 57.605324 36.519278 113.745831 7.553619 " stroke="#000000" stroke-width="17" stroke-opacity="1" stroke-miterlimit="4"/></g><g clip-path="url(#6559386219)"><path stroke-linecap="butt" transform="matrix(0.745675, -0.0730999, 0.0730999, 0.745675, 110.321729, 200.422632)" fill="none" stroke-linejoin="miter" d="M 6.102681 5.914359 C 31.16344 31.782143 56.203864 31.780026 81.223447 5.913198 " stroke="#000000" stroke-width="17" stroke-opacity="1" stroke-miterlimit="4"/></g><g clip-path="url(#e035290381)"><path stroke-linecap="butt" transform="matrix(0.711579, -0.234587, 0.234587, 0.711579, 118.270161, 171.842231)" fill="none" stroke-linejoin="miter" d="M 7.498441 7.508073 C 16.753669 24.859539 37.713301 24.857971 70.375703 7.508322 " stroke="#000000" stroke-width="17" stroke-opacity="1" stroke-miterlimit="4"/></g><path stroke-linecap="butt" transform="matrix(0.721448, -0.202207, 0.202207, 0.721448, 82.632643, 94.411978)" fill="none" stroke-linejoin="miter" d="M 7.478806 7.529741 C 16.845907 24.877047 38.076022 24.876917 71.16915 7.529352 " stroke="#000000" stroke-width="17" stroke-opacity="1" stroke-miterlimit="4"/><g clip-path="url(#1da3df5d14)"><path stroke-linecap="butt" transform="matrix(-0.361271, 0.656398, -0.656398, -0.361271, 48.211879, 81.323466)" fill="none" stroke-linejoin="miter" d="M 2.768986 8.034794 C 30.72552 17.666111 58.649288 17.668828 86.549426 8.037917 " stroke="#000000" stroke-width="17" stroke-opacity="1" stroke-miterlimit="4"/></g></svg>